<?xml version="1.0" encoding="UTF-8" standalone="no"?>
<svg
   viewBox="-12.11 116.83 216.48 22.61"
   version="1.1"
   sodipodi:docname="flute.svg"
   inkscape:version="1.4.2 (ebf0e940, 2025-05-08)"
   xmlns:inkscape="http://www.inkscape.org/namespaces/inkscape"
   xmlns:sodipodi="http://sodipodi.sourceforge.net/DTD/sodipodi-0.dtd"
   xmlns="http://www.w3.org/2000/svg"
   xmlns:svg="http://www.w3.org/2000/svg">
  <g
     style="display:inline">
    <path
       d="m 202.76,122.74 c 0,0 0.092,-0.446 0.5,-0.237 0.433,0.216 0.635,1.727 0.635,3.823 0,2.097 -0.202,3.607 -0.635,3.824 -0.408,0.209 -0.5,-0.238 -0.5,-0.238"
       style="fill:#ffffff;stroke:#000000;stroke-width:0.3;stroke-linecap:round;stroke-linejoin:round;stroke-dasharray:none;stroke-opacity:1" />
    <path
       d="m 202.76,122.74 c 0,0 0.092,-0.446 0.5,-0.237 0.433,0.216 0.635,1.727 0.635,3.823 0,2.097 -0.202,3.607 -0.635,3.824 -0.408,0.209 -0.5,-0.238 -0.5,-0.238"
       style="fill:#ffffff;stroke:#000000;stroke-width:0.3;stroke-linecap:round;stroke-linejoin:round;stroke-dasharray:none;stroke-opacity:1" />
    <path
       d="m 202.34,123.03 c 0,0 0.015,-0.384 0.267,-0.384 0.362,0 0.654,1.678 0.654,3.685 0,2.008 -0.292,3.685 -0.654,3.685 -0.252,0 -0.267,-0.383 -0.267,-0.383"
       style="fill:#ffffff;stroke:#000000;stroke-width:0.3;stroke-linecap:round;stroke-linejoin:round;stroke-dasharray:none;stroke-opacity:1" />
    <path
       d="m 202.34,123.03 c 0,0 0.015,-0.384 0.267,-0.384 0.362,0 0.654,1.678 0.654,3.685 0,2.008 -0.292,3.685 -0.654,3.685 -0.252,0 -0.267,-0.383 -0.267,-0.383"
       style="fill:#ffffff;stroke:#000000;stroke-width:0.3;stroke-linecap:round;stroke-linejoin:round;stroke-dasharray:none;stroke-opacity:1" />
    <path
       d="m 80.846,129.48 c 0,0 0.076,0.093 0.076,0.239 0,0.656 -0.995,1.187 -2.22,1.187 -1.225,0 -2.218,-0.531 -2.218,-1.187 0,-0.177 0.038,-0.33 0.038,-0.33"
       style="fill:#ffffff;stroke:#000000;stroke-width:0.3;stroke-linecap:round;stroke-linejoin:round;stroke-dasharray:none;stroke-opacity:1" />
    <path
       d="m 80.846,129.48 c 0,0 0.076,0.093 0.076,0.239 0,0.656 -0.995,1.187 -2.22,1.187 -1.225,0 -2.218,-0.531 -2.218,-1.187 0,-0.177 0.038,-0.33 0.038,-0.33"
       style="fill:#ffffff;stroke:#000000;stroke-width:0.3;stroke-linecap:round;stroke-linejoin:round;stroke-dasharray:none;stroke-opacity:1" />
    <path
       d="m 77.129,130.56 c 0.516,0.218 0.918,0.51 0.922,0.631 0.007,0.178 -0.158,1.755 -0.151,1.917 0.007,0.162 0.338,0.334 0.436,0.376 a 0.202,0.202 0 0 0 0.199,-0.006 c 0.091,-0.048 0.406,-0.24 0.399,-0.401 -0.007,-0.163 -0.18,-1.58 -0.186,-1.759 -0.004,-0.121 0.633,-0.454 1.156,-0.653"
       style="fill:#ffffff;stroke:#000000;stroke-width:0.3;stroke-linecap:round;stroke-linejoin:round;stroke-dasharray:none;stroke-opacity:1" />
    <path
       d="m 77.129,130.56 c 0.516,0.218 0.918,0.51 0.922,0.631 0.007,0.178 -0.158,1.755 -0.151,1.917 0.007,0.162 0.338,0.334 0.436,0.376 a 0.202,0.202 0 0 0 0.199,-0.006 c 0.091,-0.048 0.406,-0.24 0.399,-0.401 -0.007,-0.163 -0.18,-1.58 -0.186,-1.759 -0.004,-0.121 0.633,-0.454 1.156,-0.653"
       style="fill:#ffffff;stroke:#000000;stroke-width:0.3;stroke-linecap:round;stroke-linejoin:round;stroke-dasharray:none;stroke-opacity:1" />
    <path
       d="m 76.484,129.18 c 0,-0.642 0.993,-1.16 2.219,-1.16 1.224,0 2.219,0.518 2.219,1.16 0,0.639 -0.995,1.156 -2.219,1.156 -1.226,0 -2.219,-0.517 -2.219,-1.156"
       style="fill:#ffffff;stroke:#000000;stroke-width:0.3;stroke-linecap:round;stroke-linejoin:round;stroke-dasharray:none;stroke-opacity:1" />
    <path
       d="m 76.484,129.18 c 0,-0.642 0.993,-1.16 2.219,-1.16 1.224,0 2.219,0.518 2.219,1.16 0,0.639 -0.995,1.156 -2.219,1.156 -1.226,0 -2.219,-0.517 -2.219,-1.156 z"
       style="fill:#ffffff;stroke:#000000;stroke-width:0.3;stroke-linecap:round;stroke-linejoin:round;stroke-dasharray:none;stroke-opacity:1" />
    <path
       d="m 98.352,129.83 c 0,0 0.098,0.12 0.098,0.308 0,0.838 -1.272,1.516 -2.839,1.516 -1.569,0 -2.838,-0.678 -2.838,-1.516 0,-0.226 0.048,-0.424 0.048,-0.424"
       style="fill:#ffffff;stroke:#000000;stroke-width:0.3;stroke-linecap:round;stroke-linejoin:round;stroke-dasharray:none;stroke-opacity:1" />
    <path
       d="m 98.352,129.83 c 0,0 0.098,0.12 0.098,0.308 0,0.838 -1.272,1.516 -2.839,1.516 -1.569,0 -2.838,-0.678 -2.838,-1.516 0,-0.226 0.048,-0.424 0.048,-0.424"
       style="fill:#ffffff;stroke:#000000;stroke-width:0.3;stroke-linecap:round;stroke-linejoin:round;stroke-dasharray:none;stroke-opacity:1" />
    <path
       d="m 92.773,129.44 c 0,-0.818 1.27,-1.481 2.838,-1.481 1.567,0 2.839,0.663 2.839,1.481 0,0.818 -1.272,1.482 -2.839,1.482 -1.568,0 -2.838,-0.664 -2.838,-1.482"
       style="fill:#ffffff;stroke:#000000;stroke-width:0.3;stroke-linecap:round;stroke-linejoin:round;stroke-dasharray:none;stroke-opacity:1" />
    <path
       d="m 92.773,129.44 c 0,-0.818 1.27,-1.481 2.838,-1.481 1.567,0 2.839,0.663 2.839,1.481 0,0.818 -1.272,1.482 -2.839,1.482 -1.568,0 -2.838,-0.664 -2.838,-1.482 z"
       style="fill:#ffffff;stroke:#000000;stroke-width:0.3;stroke-linecap:round;stroke-linejoin:round;stroke-dasharray:none;stroke-opacity:1" />
    <path
       d="m 75.967,129.48 c 0,0 0.076,0.093 0.076,0.239 0,0.656 -0.992,1.187 -2.218,1.187 -1.226,0 -2.22,-0.531 -2.22,-1.187 0,-0.177 0.038,-0.33 0.038,-0.33"
       style="fill:#ffffff;stroke:#000000;stroke-width:0.3;stroke-linecap:round;stroke-linejoin:round;stroke-dasharray:none;stroke-opacity:1" />
    <path
       d="m 75.967,129.48 c 0,0 0.076,0.093 0.076,0.239 0,0.656 -0.992,1.187 -2.218,1.187 -1.226,0 -2.22,-0.531 -2.22,-1.187 0,-0.177 0.038,-0.33 0.038,-0.33"
       style="fill:#ffffff;stroke:#000000;stroke-width:0.3;stroke-linecap:round;stroke-linejoin:round;stroke-dasharray:none;stroke-opacity:1" />
    <path
       d="m 72.252,130.56 c 0.515,0.218 0.917,0.51 0.923,0.631 0.006,0.178 -0.158,1.755 -0.152,1.917 0.008,0.162 0.338,0.334 0.436,0.376 a 0.2,0.2 0 0 0 0.198,-0.006 c 0.092,-0.048 0.407,-0.24 0.401,-0.401 -0.008,-0.163 -0.181,-1.58 -0.188,-1.759 -0.004,-0.121 0.633,-0.454 1.156,-0.653"
       style="fill:#ffffff;stroke:#000000;stroke-width:0.3;stroke-linecap:round;stroke-linejoin:round;stroke-dasharray:none;stroke-opacity:1" />
    <path
       d="m 72.252,130.56 c 0.515,0.218 0.917,0.51 0.923,0.631 0.006,0.178 -0.158,1.755 -0.152,1.917 0.008,0.162 0.338,0.334 0.436,0.376 a 0.2,0.2 0 0 0 0.198,-0.006 c 0.092,-0.048 0.407,-0.24 0.401,-0.401 -0.008,-0.163 -0.181,-1.58 -0.188,-1.759 -0.004,-0.121 0.633,-0.454 1.156,-0.653"
       style="fill:#ffffff;stroke:#000000;stroke-width:0.3;stroke-linecap:round;stroke-linejoin:round;stroke-dasharray:none;stroke-opacity:1" />
    <path
       d="m 71.605,129.18 c 0,-0.642 0.994,-1.16 2.221,-1.16 1.225,0 2.217,0.518 2.217,1.16 0,0.639 -0.992,1.156 -2.217,1.156 -1.227,0 -2.221,-0.517 -2.221,-1.156"
       style="fill:#ffffff;stroke:#000000;stroke-width:0.3;stroke-linecap:round;stroke-linejoin:round;stroke-dasharray:none;stroke-opacity:1" />
    <path
       d="m 71.605,129.18 c 0,-0.642 0.994,-1.16 2.221,-1.16 1.225,0 2.217,0.518 2.217,1.16 0,0.639 -0.992,1.156 -2.217,1.156 -1.227,0 -2.221,-0.517 -2.221,-1.156 z"
       style="fill:#ffffff;stroke:#000000;stroke-width:0.3;stroke-linecap:round;stroke-linejoin:round;stroke-dasharray:none;stroke-opacity:1" />
    <path
       d="m -11.617,126.35 c 0,2.167 0.51,2.862 0.51,2.862 l 213.45,0.419 c 0,0 0.292,-1.235 0.292,-3.271 0,-2.034 -0.292,-3.27 -0.292,-3.27 l -213.45,0.397 c 0,0 -0.51,0.697 -0.51,2.863"
       style="fill:#ffffff;stroke:#000000;stroke-width:0.3;stroke-linecap:round;stroke-linejoin:round;stroke-dasharray:none;stroke-opacity:1" />
    <path
       d="m -11.617,126.35 c 0,2.167 0.51,2.862 0.51,2.862 l 213.45,0.419 c 0,0 0.292,-1.235 0.292,-3.271 0,-2.034 -0.292,-3.27 -0.292,-3.27 l -213.45,0.397 c 0,0 -0.51,0.697 -0.51,2.863 z"
       style="fill:#ffffff;stroke:#000000;stroke-width:0.3;stroke-linecap:round;stroke-linejoin:round;stroke-dasharray:none;stroke-opacity:1" />
    <path
       d="m 161.79,122.74 c 0,0 0.106,-0.446 0.58,-0.237 0.495,0.216 0.522,1.727 0.522,3.823 0,2.097 -0.027,3.607 -0.522,3.824 -0.474,0.209 -0.58,-0.238 -0.58,-0.238"
       style="fill:#ffffff;stroke:#000000;stroke-width:0.3;stroke-linecap:round;stroke-linejoin:round;stroke-dasharray:none;stroke-opacity:1" />
    <path
       d="m 161.79,122.74 c 0,0 0.106,-0.446 0.58,-0.237 0.495,0.216 0.522,1.727 0.522,3.823 0,2.097 -0.027,3.607 -0.522,3.824 -0.474,0.209 -0.58,-0.238 -0.58,-0.238"
       style="fill:#ffffff;stroke:#000000;stroke-width:0.3;stroke-linecap:round;stroke-linejoin:round;stroke-dasharray:none;stroke-opacity:1" />
    <path
       d="m 161.17,123.17 c 0,0 0.158,-0.521 0.446,-0.521 0.419,0 0.554,1.677 0.554,3.684 0,2.008 -0.135,3.686 -0.554,3.686 -0.288,0 -0.446,-0.415 -0.446,-0.415"
       style="fill:#ffffff;stroke:#000000;stroke-width:0.3;stroke-linecap:round;stroke-linejoin:round;stroke-dasharray:none;stroke-opacity:1" />
    <path
       d="m 161.17,123.17 c 0,0 0.158,-0.521 0.446,-0.521 0.419,0 0.554,1.677 0.554,3.684 0,2.008 -0.135,3.686 -0.554,3.686 -0.288,0 -0.446,-0.415 -0.446,-0.415"
       style="fill:#ffffff;stroke:#000000;stroke-width:0.3;stroke-linecap:round;stroke-linejoin:round;stroke-dasharray:none;stroke-opacity:1" />
    <path
       d="m 46.656,129.3 c 0,0.351 0.397,0.635 0.885,0.635 0.488,0 0.883,-0.284 0.883,-0.635 v -5.896 c 0,-0.351 -0.395,-0.635 -0.883,-0.635 -0.488,0 -0.885,0.284 -0.885,0.635 z"
       style="fill:#ffffff;stroke:#000000;stroke-width:0.3;stroke-linecap:round;stroke-linejoin:round;stroke-dasharray:none;stroke-opacity:1" />
    <path
       d="m 46.656,129.3 c 0,0.351 0.397,0.635 0.885,0.635 0.488,0 0.883,-0.284 0.883,-0.635 v -5.896 c 0,-0.351 -0.395,-0.635 -0.883,-0.635 -0.488,0 -0.885,0.284 -0.885,0.635 z"
       style="fill:#ffffff;stroke:#000000;stroke-width:0.3;stroke-linecap:round;stroke-linejoin:round;stroke-dasharray:none;stroke-opacity:1" />
    <path
       d="m 47.17,129.47 c 0,0.371 0.166,0.67 0.37,0.67 0.204,0 0.371,-0.299 0.371,-0.67 v -6.227 c 0,-0.37 -0.167,-0.669 -0.371,-0.669 -0.204,0 -0.37,0.299 -0.37,0.669 z"
       style="fill:#ffffff;stroke:#000000;stroke-width:0.3;stroke-linecap:round;stroke-linejoin:round;stroke-dasharray:none;stroke-opacity:1" />
    <path
       d="m 47.17,129.47 c 0,0.371 0.166,0.67 0.37,0.67 0.204,0 0.371,-0.299 0.371,-0.67 v -6.227 c 0,-0.37 -0.167,-0.669 -0.371,-0.669 -0.204,0 -0.37,0.299 -0.37,0.669 z"
       style="fill:#ffffff;stroke:#000000;stroke-width:0.3;stroke-linecap:round;stroke-linejoin:round;stroke-dasharray:none;stroke-opacity:1" />
    <path
       d="m 59.91,129.3 c 0,0.351 0.396,0.635 0.883,0.635 0.488,0 0.885,-0.284 0.885,-0.635 v -5.896 c 0,-0.351 -0.397,-0.635 -0.885,-0.635 -0.487,0 -0.883,0.284 -0.883,0.635 z"
       style="fill:#ffffff;stroke:#000000;stroke-width:0.3;stroke-linecap:round;stroke-linejoin:round;stroke-dasharray:none;stroke-opacity:1" />
    <path
       d="m 59.91,129.3 c 0,0.351 0.396,0.635 0.883,0.635 0.488,0 0.885,-0.284 0.885,-0.635 v -5.896 c 0,-0.351 -0.397,-0.635 -0.885,-0.635 -0.487,0 -0.883,0.284 -0.883,0.635 z"
       style="fill:#ffffff;stroke:#000000;stroke-width:0.3;stroke-linecap:round;stroke-linejoin:round;stroke-dasharray:none;stroke-opacity:1" />
    <path
       d="m 60.424,129.47 c 0,0.371 0.164,0.67 0.368,0.67 0.206,0 0.372,-0.299 0.372,-0.67 v -6.227 c 0,-0.37 -0.166,-0.669 -0.372,-0.669 -0.204,0 -0.368,0.299 -0.368,0.669 z"
       style="fill:#ffffff;stroke:#000000;stroke-width:0.3;stroke-linecap:round;stroke-linejoin:round;stroke-dasharray:none;stroke-opacity:1" />
    <path
       d="m 60.424,129.47 c 0,0.371 0.164,0.67 0.368,0.67 0.206,0 0.372,-0.299 0.372,-0.67 v -6.227 c 0,-0.37 -0.166,-0.669 -0.372,-0.669 -0.204,0 -0.368,0.299 -0.368,0.669 z"
       style="fill:#ffffff;stroke:#000000;stroke-width:0.3;stroke-linecap:round;stroke-linejoin:round;stroke-dasharray:none;stroke-opacity:1" />
    <path
       d="m 129.24,131.04 a 0.852,0.852 0 0 0 -0.666,0.317 v 1.079 a 0.855,0.855 0 0 0 1.333,0 v -1.079 a 0.854,0.854 0 0 0 -0.667,-0.317"
       style="fill:#ffffff;stroke:#000000;stroke-width:0.3;stroke-linecap:round;stroke-linejoin:round;stroke-dasharray:none;stroke-opacity:1" />
    <path
       d="m 129.24,131.04 a 0.852,0.852 0 0 0 -0.666,0.317 v 1.079 a 0.855,0.855 0 0 0 1.333,0 v -1.079 a 0.854,0.854 0 0 0 -0.667,-0.317 z"
       style="fill:#ffffff;stroke:#000000;stroke-width:0.3;stroke-linecap:round;stroke-linejoin:round;stroke-dasharray:none;stroke-opacity:1" />
    <path
       d="M 155.37,133.18 H 71.097 v -1.078 h 84.273 z"
       style="fill:#ffffff;stroke:#000000;stroke-width:0.3;stroke-linecap:round;stroke-linejoin:round;stroke-dasharray:none;stroke-opacity:1" />
    <path
       d="M 155.37,133.18 H 71.097 v -1.078 h 84.273 z"
       style="fill:#ffffff;stroke:#000000;stroke-width:0.3;stroke-linecap:round;stroke-linejoin:round;stroke-dasharray:none;stroke-opacity:1" />
    <path
       d="M 159.51,131.64 H 98.454 v -1.078 h 61.056 z"
       style="fill:#ffffff;stroke:#000000;stroke-width:0.3;stroke-linecap:round;stroke-linejoin:round;stroke-dasharray:none;stroke-opacity:1" />
    <path
       d="M 159.51,131.64 H 98.454 v -1.078 h 61.056 z"
       style="fill:#ffffff;stroke:#000000;stroke-width:0.3;stroke-linecap:round;stroke-linejoin:round;stroke-dasharray:none;stroke-opacity:1" />
    <path
       d="m 156.96,132.71 a 0.857,0.857 0 0 0 -1.522,-0.538 v 1.078 a 0.856,0.856 0 0 0 1.522,-0.54"
       style="fill:#ffffff;stroke:#000000;stroke-width:0.3;stroke-linecap:round;stroke-linejoin:round;stroke-dasharray:none;stroke-opacity:1" />
    <path
       d="m 156.96,132.71 a 0.857,0.857 0 0 0 -1.522,-0.538 v 1.078 a 0.856,0.856 0 0 0 1.522,-0.54 z"
       style="fill:#ffffff;stroke:#000000;stroke-width:0.3;stroke-linecap:round;stroke-linejoin:round;stroke-dasharray:none;stroke-opacity:1" />
    <path
       d="m 69.638,132.71 a 0.855,0.855 0 0 1 1.521,-0.538 v 1.078 a 0.853,0.853 0 0 1 -0.666,0.316 0.854,0.854 0 0 1 -0.855,-0.856"
       style="fill:#ffffff;stroke:#000000;stroke-width:0.3;stroke-linecap:round;stroke-linejoin:round;stroke-dasharray:none;stroke-opacity:1" />
    <path
       d="m 69.638,132.71 a 0.855,0.855 0 0 1 1.521,-0.538 v 1.078 a 0.853,0.853 0 0 1 -0.666,0.316 0.854,0.854 0 0 1 -0.855,-0.856 z"
       style="fill:#ffffff;stroke:#000000;stroke-width:0.3;stroke-linecap:round;stroke-linejoin:round;stroke-dasharray:none;stroke-opacity:1" />
    <path
       d="m 144.18,131.85 c -0.205,0 -0.388,0.124 -0.507,0.319 v 1.078 c 0.119,0.194 0.302,0.317 0.507,0.317 0.203,0 0.388,-0.123 0.506,-0.317 v -1.078 c -0.118,-0.195 -0.303,-0.319 -0.506,-0.319"
       style="fill:#ffffff;stroke:#000000;stroke-width:0.3;stroke-linecap:round;stroke-linejoin:round;stroke-dasharray:none;stroke-opacity:1" />
    <path
       d="m 144.18,131.85 c -0.205,0 -0.388,0.124 -0.507,0.319 v 1.078 c 0.119,0.194 0.302,0.317 0.507,0.317 0.203,0 0.388,-0.123 0.506,-0.317 v -1.078 c -0.118,-0.195 -0.303,-0.319 -0.506,-0.319 z"
       style="fill:#ffffff;stroke:#000000;stroke-width:0.3;stroke-linecap:round;stroke-linejoin:round;stroke-dasharray:none;stroke-opacity:1" />
    <path
       d="m 153.52,131.85 c -0.205,0 -0.387,0.124 -0.508,0.319 v 1.078 c 0.121,0.194 0.303,0.317 0.508,0.317 0.204,0 0.387,-0.123 0.506,-0.317 v -1.078 c -0.119,-0.195 -0.302,-0.319 -0.506,-0.319"
       style="fill:#ffffff;stroke:#000000;stroke-width:0.3;stroke-linecap:round;stroke-linejoin:round;stroke-dasharray:none;stroke-opacity:1" />
    <path
       d="m 153.52,131.85 c -0.205,0 -0.387,0.124 -0.508,0.319 v 1.078 c 0.121,0.194 0.303,0.317 0.508,0.317 0.204,0 0.387,-0.123 0.506,-0.317 v -1.078 c -0.119,-0.195 -0.302,-0.319 -0.506,-0.319 z"
       style="fill:#ffffff;stroke:#000000;stroke-width:0.3;stroke-linecap:round;stroke-linejoin:round;stroke-dasharray:none;stroke-opacity:1" />
    <path
       d="M 159.51,132.44 H 81.687 v -1.078 h 77.823 z"
       style="fill:#ffffff;stroke:#000000;stroke-width:0.3;stroke-linecap:round;stroke-linejoin:round;stroke-dasharray:none;stroke-opacity:1" />
    <path
       d="M 159.51,132.44 H 81.687 v -1.078 h 77.823 z"
       style="fill:#ffffff;stroke:#000000;stroke-width:0.3;stroke-linecap:round;stroke-linejoin:round;stroke-dasharray:none;stroke-opacity:1" />
    <path
       d="m 80.16,131.9 a 0.856,0.856 0 0 1 1.523,-0.539 v 1.078 A 0.855,0.855 0 0 1 80.16,131.9"
       style="fill:#ffffff;stroke:#000000;stroke-width:0.3;stroke-linecap:round;stroke-linejoin:round;stroke-dasharray:none;stroke-opacity:1" />
    <path
       d="m 80.16,131.9 a 0.856,0.856 0 0 1 1.523,-0.539 v 1.078 A 0.855,0.855 0 0 1 80.16,131.9 Z"
       style="fill:#ffffff;stroke:#000000;stroke-width:0.3;stroke-linecap:round;stroke-linejoin:round;stroke-dasharray:none;stroke-opacity:1" />
    <path
       d="m 133.74,130.99 c -0.204,0 -0.386,0.123 -0.505,0.316 v 1.079 c 0.119,0.194 0.301,0.318 0.505,0.318 0.206,0 0.388,-0.124 0.509,-0.318 v -1.079 c -0.121,-0.193 -0.303,-0.316 -0.509,-0.316"
       style="fill:#ffffff;stroke:#000000;stroke-width:0.3;stroke-linecap:round;stroke-linejoin:round;stroke-dasharray:none;stroke-opacity:1" />
    <path
       d="m 133.74,130.99 c -0.204,0 -0.386,0.123 -0.505,0.316 v 1.079 c 0.119,0.194 0.301,0.318 0.505,0.318 0.206,0 0.388,-0.124 0.509,-0.318 v -1.079 c -0.121,-0.193 -0.303,-0.316 -0.509,-0.316 z"
       style="fill:#ffffff;stroke:#000000;stroke-width:0.3;stroke-linecap:round;stroke-linejoin:round;stroke-dasharray:none;stroke-opacity:1" />
    <path
       d="m 152.03,130.99 c -0.204,0 -0.388,0.123 -0.508,0.316 v 1.079 c 0.12,0.194 0.304,0.318 0.508,0.318 0.204,0 0.387,-0.124 0.507,-0.318 v -1.079 c -0.12,-0.193 -0.303,-0.316 -0.507,-0.316"
       style="fill:#ffffff;stroke:#000000;stroke-width:0.3;stroke-linecap:round;stroke-linejoin:round;stroke-dasharray:none;stroke-opacity:1" />
    <path
       d="m 152.03,130.99 c -0.204,0 -0.388,0.123 -0.508,0.316 v 1.079 c 0.12,0.194 0.304,0.318 0.508,0.318 0.204,0 0.387,-0.124 0.507,-0.318 v -1.079 c -0.12,-0.193 -0.303,-0.316 -0.507,-0.316 z"
       style="fill:#ffffff;stroke:#000000;stroke-width:0.3;stroke-linecap:round;stroke-linejoin:round;stroke-dasharray:none;stroke-opacity:1" />
    <path
       d="m 160.61,129.36 h -1.004 v 2.496 h 1.004 z"
       style="fill:#ffffff;stroke:#000000;stroke-width:0.3;stroke-linecap:round;stroke-linejoin:round;stroke-dasharray:none;stroke-opacity:1" />
    <path
       d="m 160.61,129.36 h -1.004 v 2.496 h 1.004 z"
       style="fill:#ffffff;stroke:#000000;stroke-width:0.3;stroke-linecap:round;stroke-linejoin:round;stroke-dasharray:none;stroke-opacity:1" />
    <path
       d="m 156.52,129.47 h -1.005 v 1.898 h 1.005 z"
       style="fill:#ffffff;stroke:#000000;stroke-width:0.3;stroke-linecap:round;stroke-linejoin:round;stroke-dasharray:none;stroke-opacity:1" />
    <path
       d="m 156.52,129.47 h -1.005 v 1.898 h 1.005 z"
       style="fill:#ffffff;stroke:#000000;stroke-width:0.3;stroke-linecap:round;stroke-linejoin:round;stroke-dasharray:none;stroke-opacity:1" />
    <path
       d="m 161.03,131.9 a 0.856,0.856 0 0 0 -1.522,-0.539 v 1.078 a 0.855,0.855 0 0 0 1.522,-0.539"
       style="fill:#ffffff;stroke:#000000;stroke-width:0.3;stroke-linecap:round;stroke-linejoin:round;stroke-dasharray:none;stroke-opacity:1" />
    <path
       d="m 161.03,131.9 a 0.856,0.856 0 0 0 -1.522,-0.539 v 1.078 a 0.855,0.855 0 0 0 1.522,-0.539 z"
       style="fill:#ffffff;stroke:#000000;stroke-width:0.3;stroke-linecap:round;stroke-linejoin:round;stroke-dasharray:none;stroke-opacity:1" />
    <path
       d="m 183.22,123 c 0.273,-0.004 0.347,0 0.516,0.408 0.164,0.408 0.665,1.135 0.27,1.316 -0.391,0.18 -0.642,0.296 -0.791,-0.036 -0.146,-0.333 -0.297,-1.137 -0.297,-1.316 0,-0.178 0.168,-0.371 0.302,-0.372"
       style="fill:#ffffff;stroke:#000000;stroke-width:0.3;stroke-linecap:round;stroke-linejoin:round;stroke-dasharray:none;stroke-opacity:1" />
    <path
       d="m 183.22,123 c 0.273,-0.004 0.347,0 0.516,0.408 0.164,0.408 0.665,1.135 0.27,1.316 -0.391,0.18 -0.642,0.296 -0.791,-0.036 -0.146,-0.333 -0.297,-1.137 -0.297,-1.316 0,-0.178 0.168,-0.371 0.302,-0.372 z"
       style="fill:#ffffff;stroke:#000000;stroke-width:0.3;stroke-linecap:round;stroke-linejoin:round;stroke-dasharray:none;stroke-opacity:1" />
    <path
       d="m 183.51,124.95 c 0.321,-0.062 0.66,-0.061 0.812,0 0.151,0.06 0.197,0.843 0.197,1.154 0,0.312 0.029,2.112 -0.229,2.187 -0.257,0.075 -0.813,-0.217 -0.849,-0.453 -0.036,-0.237 0.006,-1.479 0,-1.896 -0.005,-0.418 -0.104,-0.958 0.069,-0.992"
       style="fill:#ffffff;stroke:#000000;stroke-width:0.3;stroke-linecap:round;stroke-linejoin:round;stroke-dasharray:none;stroke-opacity:1" />
    <path
       d="m 183.51,124.95 c 0.321,-0.062 0.66,-0.061 0.812,0 0.151,0.06 0.197,0.843 0.197,1.154 0,0.312 0.029,2.112 -0.229,2.187 -0.257,0.075 -0.813,-0.217 -0.849,-0.453 -0.036,-0.237 0.006,-1.479 0,-1.896 -0.005,-0.418 -0.104,-0.958 0.069,-0.992 z"
       style="fill:#ffffff;stroke:#000000;stroke-width:0.3;stroke-linecap:round;stroke-linejoin:round;stroke-dasharray:none;stroke-opacity:1" />
    <path
       d="m 186.84,130.59 c 0,0 -0.113,-0.139 -0.113,-0.357 0,-0.971 1.473,-1.761 3.293,-1.761 1.818,0 3.292,0.79 3.292,1.761 0,0.263 -0.057,0.491 -0.057,0.491"
       style="fill:#ffffff;stroke:#000000;stroke-width:0.3;stroke-linecap:round;stroke-linejoin:round;stroke-dasharray:none;stroke-opacity:1" />
    <path
       d="m 186.84,130.59 c 0,0 -0.113,-0.139 -0.113,-0.357 0,-0.971 1.473,-1.761 3.293,-1.761 1.818,0 3.292,0.79 3.292,1.761 0,0.263 -0.057,0.491 -0.057,0.491"
       style="fill:#ffffff;stroke:#000000;stroke-width:0.3;stroke-linecap:round;stroke-linejoin:round;stroke-dasharray:none;stroke-opacity:1" />
    <path
       d="m 193.05,127.61 h -28.522 v -1.078 h 28.522 z"
       style="fill:#ffffff;stroke:#000000;stroke-width:0.3;stroke-linecap:round;stroke-linejoin:round;stroke-dasharray:none;stroke-opacity:1" />
    <path
       d="m 193.05,127.61 h -28.522 v -1.078 h 28.522 z"
       style="fill:#ffffff;stroke:#000000;stroke-width:0.3;stroke-linecap:round;stroke-linejoin:round;stroke-dasharray:none;stroke-opacity:1" />
    <path
       d="m 194.58,127.06 a 0.857,0.857 0 0 0 -1.523,-0.539 v 1.078 a 0.857,0.857 0 0 0 1.523,-0.539"
       style="fill:#ffffff;stroke:#000000;stroke-width:0.3;stroke-linecap:round;stroke-linejoin:round;stroke-dasharray:none;stroke-opacity:1" />
    <path
       d="m 194.58,127.06 a 0.857,0.857 0 0 0 -1.523,-0.539 v 1.078 a 0.857,0.857 0 0 0 1.523,-0.539 z"
       style="fill:#ffffff;stroke:#000000;stroke-width:0.3;stroke-linecap:round;stroke-linejoin:round;stroke-dasharray:none;stroke-opacity:1" />
    <path
       d="m 163.01,127.06 a 0.857,0.857 0 0 1 1.523,-0.539 v 1.078 a 0.856,0.856 0 0 1 -1.523,-0.539"
       style="fill:#ffffff;stroke:#000000;stroke-width:0.3;stroke-linecap:round;stroke-linejoin:round;stroke-dasharray:none;stroke-opacity:1" />
    <path
       d="m 163.01,127.06 a 0.857,0.857 0 0 1 1.523,-0.539 v 1.078 a 0.856,0.856 0 0 1 -1.523,-0.539 z"
       style="fill:#ffffff;stroke:#000000;stroke-width:0.3;stroke-linecap:round;stroke-linejoin:round;stroke-dasharray:none;stroke-opacity:1" />
    <path
       d="m 182.63,126.21 c -0.27,0 -0.51,0.124 -0.667,0.317 v 1.079 a 0.858,0.858 0 0 0 1.334,0 v -1.079 a 0.857,0.857 0 0 0 -0.667,-0.317"
       style="fill:#ffffff;stroke:#000000;stroke-width:0.3;stroke-linecap:round;stroke-linejoin:round;stroke-dasharray:none;stroke-opacity:1" />
    <path
       d="m 182.63,126.21 c -0.27,0 -0.51,0.124 -0.667,0.317 v 1.079 a 0.858,0.858 0 0 0 1.334,0 v -1.079 a 0.857,0.857 0 0 0 -0.667,-0.317 z"
       style="fill:#ffffff;stroke:#000000;stroke-width:0.3;stroke-linecap:round;stroke-linejoin:round;stroke-dasharray:none;stroke-opacity:1" />
    <path
       d="m 96.874,130.93 a 0.852,0.852 0 0 0 -0.667,0.316 v 1.08 a 0.853,0.853 0 0 0 0.667,0.317 0.853,0.853 0 0 0 0.665,-0.317 v -1.08 a 0.852,0.852 0 0 0 -0.665,-0.316"
       style="fill:#ffffff;stroke:#000000;stroke-width:0.3;stroke-linecap:round;stroke-linejoin:round;stroke-dasharray:none;stroke-opacity:1" />
    <path
       d="m 96.874,130.93 a 0.852,0.852 0 0 0 -0.667,0.316 v 1.08 a 0.853,0.853 0 0 0 0.667,0.317 0.853,0.853 0 0 0 0.665,-0.317 v -1.08 a 0.852,0.852 0 0 0 -0.665,-0.316 z"
       style="fill:#ffffff;stroke:#000000;stroke-width:0.3;stroke-linecap:round;stroke-linejoin:round;stroke-dasharray:none;stroke-opacity:1" />
    <path
       d="m 124.86,131.27 h -12.359 v -1.078 h 12.359 z"
       style="fill:#ffffff;stroke:#000000;stroke-width:0.3;stroke-linecap:round;stroke-linejoin:round;stroke-dasharray:none;stroke-opacity:1" />
    <path
       d="m 124.86,131.27 h -12.359 v -1.078 h 12.359 z"
       style="fill:#ffffff;stroke:#000000;stroke-width:0.3;stroke-linecap:round;stroke-linejoin:round;stroke-dasharray:none;stroke-opacity:1" />
    <path
       d="m 110.98,130.72 a 0.857,0.857 0 0 1 1.522,-0.539 v 1.078 a 0.857,0.857 0 0 1 -1.522,-0.539"
       style="fill:#ffffff;stroke:#000000;stroke-width:0.3;stroke-linecap:round;stroke-linejoin:round;stroke-dasharray:none;stroke-opacity:1" />
    <path
       d="m 110.98,130.72 a 0.857,0.857 0 0 1 1.522,-0.539 v 1.078 a 0.857,0.857 0 0 1 -1.522,-0.539 z"
       style="fill:#ffffff;stroke:#000000;stroke-width:0.3;stroke-linecap:round;stroke-linejoin:round;stroke-dasharray:none;stroke-opacity:1" />
    <path
       d="m 126.51,130.72 a 0.857,0.857 0 0 0 -1.523,-0.539 v 1.078 a 0.858,0.858 0 0 0 1.523,-0.539"
       style="fill:#ffffff;stroke:#000000;stroke-width:0.3;stroke-linecap:round;stroke-linejoin:round;stroke-dasharray:none;stroke-opacity:1" />
    <path
       d="m 126.51,130.72 a 0.857,0.857 0 0 0 -1.523,-0.539 v 1.078 a 0.858,0.858 0 0 0 1.523,-0.539 z"
       style="fill:#ffffff;stroke:#000000;stroke-width:0.3;stroke-linecap:round;stroke-linejoin:round;stroke-dasharray:none;stroke-opacity:1" />
    <path
       d="m 171.52,126.21 a 0.86,0.86 0 0 0 -0.668,0.317 v 1.079 a 0.854,0.854 0 0 0 1.333,0 v -1.079 a 0.853,0.853 0 0 0 -0.665,-0.317"
       style="fill:#ffffff;stroke:#000000;stroke-width:0.3;stroke-linecap:round;stroke-linejoin:round;stroke-dasharray:none;stroke-opacity:1" />
    <path
       d="m 171.52,126.21 a 0.86,0.86 0 0 0 -0.668,0.317 v 1.079 a 0.854,0.854 0 0 0 1.333,0 v -1.079 a 0.853,0.853 0 0 0 -0.665,-0.317 z"
       style="fill:#ffffff;stroke:#000000;stroke-width:0.3;stroke-linecap:round;stroke-linejoin:round;stroke-dasharray:none;stroke-opacity:1" />
    <path
       d="m 192.16,129.73 c 0,0 0.103,-0.46 -0.279,-0.639 -0.624,-0.29 -0.746,-0.487 -0.746,-0.637 0,-0.219 0.417,-1.002 0.417,-1.729 0,-0.2 -0.323,-0.424 -0.419,-0.48 -0.063,-0.041 -0.12,-0.044 -0.198,0 -0.094,0.056 -0.418,0.28 -0.418,0.48 0,0.2 -0.09,1.246 -0.232,1.54 -0.065,0.136 -0.769,0.417 -1.423,0.639 -0.449,0.15 -0.48,0.451 -0.544,0.662"
       style="fill:#ffffff;stroke:#000000;stroke-width:0.3;stroke-linecap:round;stroke-linejoin:round;stroke-dasharray:none;stroke-opacity:1" />
    <path
       d="m 192.16,129.73 c 0,0 0.103,-0.46 -0.279,-0.639 -0.624,-0.29 -0.746,-0.487 -0.746,-0.637 0,-0.219 0.417,-1.002 0.417,-1.729 0,-0.2 -0.323,-0.424 -0.419,-0.48 -0.063,-0.041 -0.12,-0.044 -0.198,0 -0.094,0.056 -0.418,0.28 -0.418,0.48 0,0.2 -0.09,1.246 -0.232,1.54 -0.065,0.136 -0.769,0.417 -1.423,0.639 -0.449,0.15 -0.48,0.451 -0.544,0.662"
       style="fill:#ffffff;stroke:#000000;stroke-width:0.3;stroke-linecap:round;stroke-linejoin:round;stroke-dasharray:none;stroke-opacity:1" />
    <path
       d="m 175.97,130.59 c 0,0 -0.113,-0.139 -0.113,-0.357 0,-0.971 1.474,-1.761 3.291,-1.761 1.819,0 3.293,0.79 3.293,1.761 0,0.263 -0.056,0.491 -0.056,0.491"
       style="fill:#ffffff;stroke:#000000;stroke-width:0.3;stroke-linecap:round;stroke-linejoin:round;stroke-dasharray:none;stroke-opacity:1" />
    <path
       d="m 175.97,130.59 c 0,0 -0.113,-0.139 -0.113,-0.357 0,-0.971 1.474,-1.761 3.291,-1.761 1.819,0 3.293,0.79 3.293,1.761 0,0.263 -0.056,0.491 -0.056,0.491"
       style="fill:#ffffff;stroke:#000000;stroke-width:0.3;stroke-linecap:round;stroke-linejoin:round;stroke-dasharray:none;stroke-opacity:1" />
    <path
       d="m 181.29,129.73 c 0,0 0.102,-0.46 -0.28,-0.639 -0.625,-0.29 -0.964,-0.487 -0.964,-0.637 0,-0.219 0.195,-1.529 0.195,-1.729 0,-0.2 -0.324,-0.424 -0.417,-0.48 -0.066,-0.041 -0.122,-0.044 -0.199,0 -0.095,0.056 -0.418,0.28 -0.418,0.48 0,0.2 -0.014,1.32 -0.014,1.54 0,0.151 -0.549,0.417 -1.201,0.639 -0.449,0.15 -0.483,0.451 -0.544,0.662"
       style="fill:#ffffff;stroke:#000000;stroke-width:0.3;stroke-linecap:round;stroke-linejoin:round;stroke-dasharray:none;stroke-opacity:1" />
    <path
       d="m 181.29,129.73 c 0,0 0.102,-0.46 -0.28,-0.639 -0.625,-0.29 -0.964,-0.487 -0.964,-0.637 0,-0.219 0.195,-1.529 0.195,-1.729 0,-0.2 -0.324,-0.424 -0.417,-0.48 -0.066,-0.041 -0.122,-0.044 -0.199,0 -0.095,0.056 -0.418,0.28 -0.418,0.48 0,0.2 -0.014,1.32 -0.014,1.54 0,0.151 -0.549,0.417 -1.201,0.639 -0.449,0.15 -0.483,0.451 -0.544,0.662"
       style="fill:#ffffff;stroke:#000000;stroke-width:0.3;stroke-linecap:round;stroke-linejoin:round;stroke-dasharray:none;stroke-opacity:1" />
    <path
       d="m 150.6,129.39 c 0,0 -0.456,0.36 -0.68,0.725 -0.222,0.363 -0.335,0.425 -0.29,1.063 0.045,0.639 0.045,1.15 -0.111,1.297 -0.154,0.149 -0.399,0.343 -0.512,0.343 -0.11,0 -0.356,-0.194 -0.511,-0.343 -0.156,-0.147 -0.156,-0.658 -0.111,-1.297 0.044,-0.638 -0.066,-0.7 -0.291,-1.063 -0.221,-0.365 -0.68,-0.725 -0.68,-0.725"
       style="fill:#ffffff;stroke:#000000;stroke-width:0.3;stroke-linecap:round;stroke-linejoin:round;stroke-dasharray:none;stroke-opacity:1" />
    <path
       d="m 150.6,129.39 c 0,0 -0.456,0.36 -0.68,0.725 -0.222,0.363 -0.335,0.425 -0.29,1.063 0.045,0.639 0.045,1.15 -0.111,1.297 -0.154,0.149 -0.399,0.343 -0.512,0.343 -0.11,0 -0.356,-0.194 -0.511,-0.343 -0.156,-0.147 -0.156,-0.658 -0.111,-1.297 0.044,-0.638 -0.066,-0.7 -0.291,-1.063 -0.221,-0.365 -0.68,-0.725 -0.68,-0.725"
       style="fill:#ffffff;stroke:#000000;stroke-width:0.3;stroke-linecap:round;stroke-linejoin:round;stroke-dasharray:none;stroke-opacity:1" />
    <path
       d="m 141.62,129.39 c 0,0 -0.456,0.36 -0.681,0.725 -0.221,0.363 -0.333,0.425 -0.289,1.063 0.045,0.639 0.045,1.15 -0.111,1.297 -0.154,0.149 -0.4,0.343 -0.511,0.343 -0.111,0 -0.355,-0.194 -0.512,-0.343 -0.156,-0.147 -0.156,-0.658 -0.112,-1.297 0.045,-0.638 -0.066,-0.7 -0.29,-1.063 -0.221,-0.365 -0.678,-0.725 -0.678,-0.725"
       style="fill:#ffffff;stroke:#000000;stroke-width:0.3;stroke-linecap:round;stroke-linejoin:round;stroke-dasharray:none;stroke-opacity:1" />
    <path
       d="m 141.62,129.39 c 0,0 -0.456,0.36 -0.681,0.725 -0.221,0.363 -0.333,0.425 -0.289,1.063 0.045,0.639 0.045,1.15 -0.111,1.297 -0.154,0.149 -0.4,0.343 -0.511,0.343 -0.111,0 -0.355,-0.194 -0.512,-0.343 -0.156,-0.147 -0.156,-0.658 -0.112,-1.297 0.045,-0.638 -0.066,-0.7 -0.29,-1.063 -0.221,-0.365 -0.678,-0.725 -0.678,-0.725"
       style="fill:#ffffff;stroke:#000000;stroke-width:0.3;stroke-linecap:round;stroke-linejoin:round;stroke-dasharray:none;stroke-opacity:1" />
    <path
       d="m 133.04,129.39 c 0,0 -0.458,0.36 -0.681,0.725 -0.223,0.363 -0.333,0.425 -0.29,1.063 0.045,0.639 0.045,1.15 -0.109,1.297 -0.156,0.149 -0.402,0.343 -0.514,0.343 -0.111,0 -0.355,-0.194 -0.51,-0.343 -0.157,-0.147 -0.157,-0.658 -0.112,-1.297 0.045,-0.638 -0.067,-0.7 -0.29,-1.063 -0.223,-0.365 -0.679,-0.725 -0.679,-0.725"
       style="fill:#ffffff;stroke:#000000;stroke-width:0.3;stroke-linecap:round;stroke-linejoin:round;stroke-dasharray:none;stroke-opacity:1" />
    <path
       d="m 133.04,129.39 c 0,0 -0.458,0.36 -0.681,0.725 -0.223,0.363 -0.333,0.425 -0.29,1.063 0.045,0.639 0.045,1.15 -0.109,1.297 -0.156,0.149 -0.402,0.343 -0.514,0.343 -0.111,0 -0.355,-0.194 -0.51,-0.343 -0.157,-0.147 -0.157,-0.658 -0.112,-1.297 0.045,-0.638 -0.067,-0.7 -0.29,-1.063 -0.223,-0.365 -0.679,-0.725 -0.679,-0.725"
       style="fill:#ffffff;stroke:#000000;stroke-width:0.3;stroke-linecap:round;stroke-linejoin:round;stroke-dasharray:none;stroke-opacity:1" />
    <path
       d="m 110.05,129.39 c 0,0 -0.457,0.36 -0.68,0.725 -0.222,0.363 -0.334,0.425 -0.29,1.063 0.045,0.639 0.045,1.15 -0.109,1.297 -0.156,0.149 -0.401,0.343 -0.514,0.343 -0.111,0 -0.356,-0.194 -0.511,-0.343 -0.156,-0.147 -0.156,-0.658 -0.112,-1.297 0.045,-0.638 -0.066,-0.7 -0.289,-1.063 -0.224,-0.365 -0.68,-0.725 -0.68,-0.725"
       style="fill:#ffffff;stroke:#000000;stroke-width:0.3;stroke-linecap:round;stroke-linejoin:round;stroke-dasharray:none;stroke-opacity:1" />
    <path
       d="m 110.05,129.39 c 0,0 -0.457,0.36 -0.68,0.725 -0.222,0.363 -0.334,0.425 -0.29,1.063 0.045,0.639 0.045,1.15 -0.109,1.297 -0.156,0.149 -0.401,0.343 -0.514,0.343 -0.111,0 -0.356,-0.194 -0.511,-0.343 -0.156,-0.147 -0.156,-0.658 -0.112,-1.297 0.045,-0.638 -0.066,-0.7 -0.289,-1.063 -0.224,-0.365 -0.68,-0.725 -0.68,-0.725"
       style="fill:#ffffff;stroke:#000000;stroke-width:0.3;stroke-linecap:round;stroke-linejoin:round;stroke-dasharray:none;stroke-opacity:1" />
    <path
       d="m 142.82,130.99 c -0.205,0 -0.387,0.123 -0.507,0.316 v 2.526 c 0.12,0.194 0.302,0.319 0.507,0.319 0.205,0 0.388,-0.125 0.509,-0.319 v -2.526 c -0.121,-0.193 -0.304,-0.316 -0.509,-0.316"
       style="fill:#ffffff;stroke:#000000;stroke-width:0.3;stroke-linecap:round;stroke-linejoin:round;stroke-dasharray:none;stroke-opacity:1" />
    <path
       d="m 142.82,130.99 c -0.205,0 -0.387,0.123 -0.507,0.316 v 2.526 c 0.12,0.194 0.302,0.319 0.507,0.319 0.205,0 0.388,-0.125 0.509,-0.319 v -2.526 c -0.121,-0.193 -0.304,-0.316 -0.509,-0.316 z"
       style="fill:#ffffff;stroke:#000000;stroke-width:0.3;stroke-linecap:round;stroke-linejoin:round;stroke-dasharray:none;stroke-opacity:1" />
    <path
       d="m 130.26,130.99 c -0.203,0 -0.386,0.123 -0.506,0.316 v 2.526 c 0.12,0.194 0.303,0.319 0.506,0.319 0.205,0 0.389,-0.125 0.508,-0.319 v -2.526 c -0.119,-0.193 -0.303,-0.316 -0.508,-0.316"
       style="fill:#ffffff;stroke:#000000;stroke-width:0.3;stroke-linecap:round;stroke-linejoin:round;stroke-dasharray:none;stroke-opacity:1" />
    <path
       d="m 130.26,130.99 c -0.203,0 -0.386,0.123 -0.506,0.316 v 2.526 c 0.12,0.194 0.303,0.319 0.506,0.319 0.205,0 0.389,-0.125 0.508,-0.319 v -2.526 c -0.119,-0.193 -0.303,-0.316 -0.508,-0.316 z"
       style="fill:#ffffff;stroke:#000000;stroke-width:0.3;stroke-linecap:round;stroke-linejoin:round;stroke-dasharray:none;stroke-opacity:1" />
    <path
       d="m 130.77,133.83 h 11.542"
       style="fill:#ffffff;stroke:#000000;stroke-width:0.3;stroke-linecap:round;stroke-linejoin:round;stroke-dasharray:none;stroke-opacity:1" />
    <path
       d="m 130.77,133.83 h 11.542"
       style="fill:#ffffff;stroke:#000000;stroke-width:0.3;stroke-linecap:round;stroke-linejoin:round;stroke-dasharray:none;stroke-opacity:1" />
    <path
       d="m 125.74,127.27 c 0,0 -0.864,1.116 -1.087,1.479 -0.223,0.365 -0.371,0.427 -0.331,1.067 0.044,0.638 0.044,1.765 -0.103,1.914 -0.145,0.148 -0.375,0.342 -0.479,0.342 -0.104,0 -0.333,-0.194 -0.479,-0.342 -0.146,-0.149 -0.146,-1.276 -0.102,-1.914 0.04,-0.64 -0.108,-0.702 -0.332,-1.067 -0.221,-0.363 -1.085,-1.479 -1.085,-1.479"
       style="fill:#ffffff;stroke:#000000;stroke-width:0.3;stroke-linecap:round;stroke-linejoin:round;stroke-dasharray:none;stroke-opacity:1" />
    <path
       d="m 125.74,127.27 c 0,0 -0.864,1.116 -1.087,1.479 -0.223,0.365 -0.371,0.427 -0.331,1.067 0.044,0.638 0.044,1.765 -0.103,1.914 -0.145,0.148 -0.375,0.342 -0.479,0.342 -0.104,0 -0.333,-0.194 -0.479,-0.342 -0.146,-0.149 -0.146,-1.276 -0.102,-1.914 0.04,-0.64 -0.108,-0.702 -0.332,-1.067 -0.221,-0.363 -1.085,-1.479 -1.085,-1.479"
       style="fill:#ffffff;stroke:#000000;stroke-width:0.3;stroke-linecap:round;stroke-linejoin:round;stroke-dasharray:none;stroke-opacity:1" />
    <path
       d="m 117.87,127.27 c 0,0 -0.863,1.116 -1.087,1.479 -0.223,0.365 -0.372,0.427 -0.329,1.067 0.041,0.638 0.041,1.765 -0.104,1.914 -0.146,0.148 -0.375,0.342 -0.48,0.342 -0.104,0 -0.333,-0.194 -0.478,-0.342 -0.146,-0.149 -0.146,-1.276 -0.104,-1.914 0.042,-0.64 -0.106,-0.702 -0.33,-1.067 -0.223,-0.363 -1.086,-1.479 -1.086,-1.479"
       style="fill:#ffffff;stroke:#000000;stroke-width:0.3;stroke-linecap:round;stroke-linejoin:round;stroke-dasharray:none;stroke-opacity:1" />
    <path
       d="m 117.87,127.27 c 0,0 -0.863,1.116 -1.087,1.479 -0.223,0.365 -0.372,0.427 -0.329,1.067 0.041,0.638 0.041,1.765 -0.104,1.914 -0.146,0.148 -0.375,0.342 -0.48,0.342 -0.104,0 -0.333,-0.194 -0.478,-0.342 -0.146,-0.149 -0.146,-1.276 -0.104,-1.914 0.042,-0.64 -0.106,-0.702 -0.33,-1.067 -0.223,-0.363 -1.086,-1.479 -1.086,-1.479"
       style="fill:#ffffff;stroke:#000000;stroke-width:0.3;stroke-linecap:round;stroke-linejoin:round;stroke-dasharray:none;stroke-opacity:1" />
    <path
       d="m 103.19,129.39 c 0,0 -0.457,0.36 -0.678,0.725 -0.224,0.363 -0.335,0.425 -0.291,1.063 0.045,0.639 0.045,1.15 -0.111,1.297 -0.155,0.149 -0.401,0.343 -0.512,0.343 -0.111,0 -0.356,-0.194 -0.512,-0.343 -0.156,-0.147 -0.156,-0.658 -0.111,-1.297 0.044,-0.638 -0.067,-0.7 -0.289,-1.063 -0.224,-0.365 -0.68,-0.725 -0.68,-0.725"
       style="fill:#ffffff;stroke:#000000;stroke-width:0.3;stroke-linecap:round;stroke-linejoin:round;stroke-dasharray:none;stroke-opacity:1" />
    <path
       d="m 103.19,129.39 c 0,0 -0.457,0.36 -0.678,0.725 -0.224,0.363 -0.335,0.425 -0.291,1.063 0.045,0.639 0.045,1.15 -0.111,1.297 -0.155,0.149 -0.401,0.343 -0.512,0.343 -0.111,0 -0.356,-0.194 -0.512,-0.343 -0.156,-0.147 -0.156,-0.658 -0.111,-1.297 0.044,-0.638 -0.067,-0.7 -0.289,-1.063 -0.224,-0.365 -0.68,-0.725 -0.68,-0.725"
       style="fill:#ffffff;stroke:#000000;stroke-width:0.3;stroke-linecap:round;stroke-linejoin:round;stroke-dasharray:none;stroke-opacity:1" />
    <path
       d="m 96.418,128.82 c 0,0 -0.314,0.36 -0.467,0.725 -0.154,0.362 -0.23,0.996 -0.2,1.633 0.032,0.639 0.032,1.15 -0.077,1.297 -0.107,0.15 -0.275,0.287 -0.352,0.287 -0.076,0 -0.245,-0.137 -0.352,-0.287 -0.108,-0.147 -0.108,-0.658 -0.076,-1.297 0.031,-0.637 -0.046,-1.271 -0.2,-1.633 -0.153,-0.365 -0.467,-0.725 -0.467,-0.725"
       style="fill:#ffffff;stroke:#000000;stroke-width:0.3;stroke-linecap:round;stroke-linejoin:round;stroke-dasharray:none;stroke-opacity:1" />
    <path
       d="m 96.418,128.82 c 0,0 -0.314,0.36 -0.467,0.725 -0.154,0.362 -0.23,0.996 -0.2,1.633 0.032,0.639 0.032,1.15 -0.077,1.297 -0.107,0.15 -0.275,0.287 -0.352,0.287 -0.076,0 -0.245,-0.137 -0.352,-0.287 -0.108,-0.147 -0.108,-0.658 -0.076,-1.297 0.031,-0.637 -0.046,-1.271 -0.2,-1.633 -0.153,-0.365 -0.467,-0.725 -0.467,-0.725"
       style="fill:#ffffff;stroke:#000000;stroke-width:0.3;stroke-linecap:round;stroke-linejoin:round;stroke-dasharray:none;stroke-opacity:1" />
    <path
       d="m 86.377,128.82 c 0,0 -0.314,0.36 -0.467,0.725 -0.154,0.362 -0.231,0.996 -0.199,1.633 0.029,0.639 0.029,1.15 -0.078,1.297 -0.107,0.15 -0.276,0.287 -0.351,0.287 -0.077,0 -0.246,-0.137 -0.353,-0.287 -0.108,-0.147 -0.108,-0.658 -0.076,-1.297 0.03,-0.637 -0.046,-1.271 -0.201,-1.633 -0.152,-0.365 -0.466,-0.725 -0.466,-0.725"
       style="fill:#ffffff;stroke:#000000;stroke-width:0.3;stroke-linecap:round;stroke-linejoin:round;stroke-dasharray:none;stroke-opacity:1" />
    <path
       d="m 86.377,128.82 c 0,0 -0.314,0.36 -0.467,0.725 -0.154,0.362 -0.231,0.996 -0.199,1.633 0.029,0.639 0.029,1.15 -0.078,1.297 -0.107,0.15 -0.276,0.287 -0.351,0.287 -0.077,0 -0.246,-0.137 -0.353,-0.287 -0.108,-0.147 -0.108,-0.658 -0.076,-1.297 0.03,-0.637 -0.046,-1.271 -0.201,-1.633 -0.152,-0.365 -0.466,-0.725 -0.466,-0.725"
       style="fill:#ffffff;stroke:#000000;stroke-width:0.3;stroke-linecap:round;stroke-linejoin:round;stroke-dasharray:none;stroke-opacity:1" />
    <path
       d="m 165.44,123.15 c 0,0 -0.113,0.151 -0.113,0.392 0,1.063 1.473,1.926 3.292,1.926 1.819,0 3.292,-0.863 3.292,-1.926 0,-0.289 -0.056,-0.538 -0.056,-0.538"
       style="display:inline;fill:#ffffff;stroke:#000000;stroke-width:0.3;stroke-linecap:round;stroke-linejoin:round;stroke-dasharray:none;stroke-opacity:1" />
    <path
       d="m 165.44,123.15 c 0,0 -0.113,0.151 -0.113,0.392 0,1.063 1.473,1.926 3.292,1.926 1.819,0 3.292,-0.863 3.292,-1.926 0,-0.289 -0.056,-0.538 -0.056,-0.538"
       style="display:inline;fill:#ffffff;stroke:#000000;stroke-width:0.3;stroke-linecap:round;stroke-linejoin:round;stroke-dasharray:none;stroke-opacity:1" />
    <path
       d="m 170.76,124.11 c 0,0 0.102,0.517 -0.28,0.716 -0.623,0.326 -0.965,0.549 -0.965,0.716 0,0.246 0.197,1.715 0.197,1.939 0,0.225 -0.322,0.477 -0.42,0.539 -0.061,0.047 -0.121,0.051 -0.197,0 -0.095,-0.062 -0.418,-0.314 -0.418,-0.539 0,-0.224 -0.013,-1.481 -0.013,-1.728 0,-0.167 -0.55,-0.468 -1.202,-0.716 -0.449,-0.169 -0.483,-0.507 -0.545,-0.744"
       style="display:inline;fill:#ffffff;stroke:#000000;stroke-width:0.3;stroke-linecap:round;stroke-linejoin:round;stroke-dasharray:none;stroke-opacity:1" />
    <path
       d="m 160.14,129.39 c 0,0 -0.458,0.36 -0.681,0.725 -0.222,0.363 -0.334,0.425 -0.289,1.063 0.044,0.639 0.044,1.15 -0.111,1.297 -0.157,0.149 -0.4,0.343 -0.513,0.343 -0.11,0 -0.356,-0.194 -0.512,-0.343 -0.155,-0.147 -0.155,-0.658 -0.111,-1.297 0.045,-0.638 -0.066,-0.7 -0.289,-1.063 -0.223,-0.365 -0.68,-0.725 -0.68,-0.725"
       style="display:inline;fill:#ffffff;stroke:#000000;stroke-width:0.3;stroke-linecap:round;stroke-linejoin:round;stroke-dasharray:none;stroke-opacity:1" />
    <path
       d="m 160.14,129.39 c 0,0 -0.458,0.36 -0.681,0.725 -0.222,0.363 -0.334,0.425 -0.289,1.063 0.044,0.639 0.044,1.15 -0.111,1.297 -0.157,0.149 -0.4,0.343 -0.513,0.343 -0.11,0 -0.356,-0.194 -0.512,-0.343 -0.155,-0.147 -0.155,-0.658 -0.111,-1.297 0.045,-0.638 -0.066,-0.7 -0.289,-1.063 -0.223,-0.365 -0.68,-0.725 -0.68,-0.725"
       style="display:inline;fill:#ffffff;stroke:#000000;stroke-width:0.3;stroke-linecap:round;stroke-linejoin:round;stroke-dasharray:none;stroke-opacity:1" />
    <path
       d="m 170.76,124.11 c 0,0 0.102,0.517 -0.28,0.716 -0.623,0.326 -0.965,0.549 -0.965,0.716 0,0.246 0.197,1.715 0.197,1.939 0,0.225 -0.322,0.477 -0.42,0.539 -0.061,0.047 -0.121,0.051 -0.197,0 -0.095,-0.062 -0.418,-0.314 -0.418,-0.539 0,-0.224 -0.013,-1.481 -0.013,-1.728 0,-0.167 -0.55,-0.468 -1.202,-0.716 -0.449,-0.169 -0.483,-0.507 -0.545,-0.744"
       style="display:inline;fill:#ffffff;stroke:#000000;stroke-width:0.3;stroke-linecap:round;stroke-linejoin:round;stroke-dasharray:none;stroke-opacity:1" />
  </g>
  <g
     style="stroke-linecap:round;stroke-linejoin:round;fill:#ffffff;stroke:#000000;stroke-opacity:1;stroke-width:0.3;stroke-dasharray:none">
    <path
       d="m 108.9,136.79 c 0,0 0,0.507 -1.006,0.507 -1.006,0 -4.109,-0.017 -6.29,0 -2.181,0.015 -2.271,1.284 -4.423,1.284 -3.552,0 -3.515,-1.791 -3.515,-1.791 0,-0.644 0.169,-0.644 1.241,-0.644 h 13.583 c 0.358,0 0.41,0.644 0.41,0.644"
       style="fill:#ffffff;stroke:#000000;stroke-opacity:1;stroke-width:0.3;stroke-dasharray:none" />
    <path
       d="m 108.9,136.79 c 0,0 0,0.507 -1.006,0.507 -1.006,0 -4.109,-0.017 -6.29,0 -2.181,0.015 -2.271,1.284 -4.423,1.284 -3.552,0 -3.515,-1.791 -3.515,-1.791 0,-0.644 0.169,-0.644 1.241,-0.644 h 13.583 c 0.358,0 0.41,0.644 0.41,0.644 z"
       style="fill:#ffffff;stroke:#000000;stroke-opacity:1;stroke-width:0.3;stroke-dasharray:none" />
  </g>
  <g
     id="roller-key">
    <path
       d="m 168.62,132.76 c 2.652,0 3.136,-1.831 3.703,-1.831 0.379,0 1.017,0.111 1.397,0.111 0.376,0 0.495,-0.229 0.598,-0.691 0.048,-0.215 0.525,-3.691 0.525,-3.891 0,-0.2 -0.326,-0.422 -0.418,-0.479 -0.065,-0.042 -0.121,-0.044 -0.2,0 -0.096,0.057 -0.419,0.279 -0.419,0.479 0,0.2 -0.332,3.379 -0.332,3.6 0,0.148 -0.134,0.291 -0.913,0.291 h -4.986 c -0.496,0 -0.733,-0.224 -0.898,-0.199 -0.164,0.022 -0.189,0.255 -0.189,0.576 0,0.321 -0.345,2.034 2.132,2.034"
       style="stroke-linecap:round;stroke-linejoin:round;fill:#ffffff;stroke:#000000;stroke-opacity:1;stroke-width:0.3;stroke-dasharray:none" />
    <path
       d="m 168.62,132.76 c 2.652,0 3.136,-1.831 3.703,-1.831 0.379,0 1.017,0.111 1.397,0.111 0.376,0 0.495,-0.229 0.598,-0.691 0.048,-0.215 0.525,-3.691 0.525,-3.891 0,-0.2 -0.326,-0.422 -0.418,-0.479 -0.065,-0.042 -0.121,-0.044 -0.2,0 -0.096,0.057 -0.419,0.279 -0.419,0.479 0,0.2 -0.332,3.379 -0.332,3.6 0,0.148 -0.134,0.291 -0.913,0.291 h -4.986 c -0.496,0 -0.733,-0.224 -0.898,-0.199 -0.164,0.022 -0.189,0.255 -0.189,0.576 0,0.321 -0.345,2.034 2.132,2.034 z"
       style="stroke-linecap:round;stroke-linejoin:round;fill:#ffffff;stroke:#000000;stroke-opacity:1;stroke-width:0.3;stroke-dasharray:none" />
  </g>
  <g
     id="roller">
    <path
       d="m 171.26,130.01 c 0,0 0.764,-0.054 0.917,-0.054 0.354,0 0.328,0.054 0.666,0.054 0.484,0 0.409,-0.087 0.457,-0.274 0.049,-0.196 0.248,-2.269 0.292,-2.523 0.038,-0.227 0.054,-0.322 0.047,-0.48 -0.011,-0.251 -0.092,-1.554 -0.137,-1.785 -0.048,-0.23 -0.373,-0.455 -0.467,-0.51 -0.062,-0.042 -0.11,-0.04 -0.167,0.019 -0.067,0.075 -0.337,0.366 -0.29,0.597 0.045,0.23 0.233,1.512 0.233,1.771 0,0.172 0.01,0.161 -0.016,0.633 -0.022,0.472 -0.282,1.584 -0.307,1.726 -0.022,0.14 -0.926,0.05 -1.106,0.05 -0.18,0 -0.207,-0.594 -0.856,-0.594 h -2.621 c -0.519,0 -1.069,0.046 -1.069,0.684 0,0.638 0.217,0.804 0.831,0.804 h 2.767 c 0.472,0 0.575,-0.118 0.826,-0.118"
       style="stroke-linecap:round;stroke-linejoin:round;fill:#ffffff;stroke:#000000;stroke-opacity:1;stroke-width:0.3;stroke-dasharray:none" />
    <path
       d="m 171.26,130.01 c 0,0 0.764,-0.054 0.917,-0.054 0.354,0 0.328,0.054 0.666,0.054 0.484,0 0.409,-0.087 0.457,-0.274 0.049,-0.196 0.248,-2.269 0.292,-2.523 0.038,-0.227 0.054,-0.322 0.047,-0.48 -0.011,-0.251 -0.092,-1.554 -0.137,-1.785 -0.048,-0.23 -0.373,-0.455 -0.467,-0.51 -0.062,-0.042 -0.11,-0.04 -0.167,0.019 -0.067,0.075 -0.337,0.366 -0.29,0.597 0.045,0.23 0.233,1.512 0.233,1.771 0,0.172 0.01,0.161 -0.016,0.633 -0.022,0.472 -0.282,1.584 -0.307,1.726 -0.022,0.14 -0.926,0.05 -1.106,0.05 -0.18,0 -0.207,-0.594 -0.856,-0.594 h -2.621 c -0.519,0 -1.069,0.046 -1.069,0.684 0,0.638 0.217,0.804 0.831,0.804 h 2.767 c 0.472,0 0.575,-0.118 0.826,-0.118 z"
       style="stroke-linecap:round;stroke-linejoin:round;fill:#ffffff;stroke:#000000;stroke-opacity:1;stroke-width:0.3;stroke-dasharray:none" />
  </g>
  <g
     id="d#-lever">
    <path
       d="m 166.24,126.26 c 0.119,-0.171 0.128,-0.158 0.187,-0.228 0.056,-0.07 0.15,-0.122 0.278,0.073 0.126,0.194 0.177,0.367 0.139,0.657 a 15.51,15.51 0 0 1 -0.365,1.886 c -0.189,0.705 -0.213,1.772 -0.213,2.581 0,0.81 -0.221,1.722 -1.646,1.722 -1.422,0 -2.233,-0.832 -2.233,-1.585 0,-0.751 0.555,-1.701 1.678,-2.14 1.123,-0.439 1.591,-0.053 1.875,-0.764 0.278,-0.694 0.184,-1.273 0.184,-1.538 0,-0.267 0.056,-0.582 0.116,-0.664"
       style="stroke-linecap:round;stroke-linejoin:round;fill:#ffffff;stroke:#000000;stroke-opacity:1;stroke-width:0.3;stroke-dasharray:none" />
    <path
       d="m 166.24,126.26 c 0.119,-0.171 0.128,-0.158 0.187,-0.228 0.056,-0.07 0.15,-0.122 0.278,0.073 0.126,0.194 0.177,0.367 0.139,0.657 a 15.51,15.51 0 0 1 -0.365,1.886 c -0.189,0.705 -0.213,1.772 -0.213,2.581 0,0.81 -0.221,1.722 -1.646,1.722 -1.422,0 -2.233,-0.832 -2.233,-1.585 0,-0.751 0.555,-1.701 1.678,-2.14 1.123,-0.439 1.591,-0.053 1.875,-0.764 0.278,-0.694 0.184,-1.273 0.184,-1.538 0,-0.267 0.056,-0.582 0.116,-0.664 z"
       style="stroke-linecap:round;stroke-linejoin:round;fill:#ffffff;stroke:#000000;stroke-opacity:1;stroke-width:0.3;stroke-dasharray:none" />
  </g>
  <g
     id="low-c-key">
    <path
       d="m 193.32,131.04 c 0,0.949 -1.474,1.72 -3.292,1.72 -1.819,0 -3.293,-0.771 -3.293,-1.72 0,-0.95 1.474,-1.719 3.293,-1.719 1.818,0 3.292,0.769 3.292,1.719"
       style="stroke-linecap:round;stroke-linejoin:round;fill:#ffffff;stroke:#000000;stroke-opacity:1;stroke-width:0.3;stroke-dasharray:none" />
    <path
       d="m 193.32,131.04 c 0,0.949 -1.474,1.72 -3.292,1.72 -1.819,0 -3.293,-0.771 -3.293,-1.72 0,-0.95 1.474,-1.719 3.293,-1.719 1.818,0 3.292,0.769 3.292,1.719 z"
       style="stroke-linecap:round;stroke-linejoin:round;fill:#ffffff;stroke:#000000;stroke-opacity:1;stroke-width:0.3;stroke-dasharray:none" />
    <path
       d="m 192.07,131.37 c 0,0.563 -0.915,1.02 -2.045,1.02 -1.13,0 -2.045,-0.457 -2.045,-1.02 0,-0.565 0.915,-1.021 2.045,-1.021 1.13,0 2.045,0.456 2.045,1.021"
       style="stroke-linecap:round;stroke-linejoin:round;fill:#ffffff;stroke:#000000;stroke-opacity:1;stroke-width:0.3;stroke-dasharray:none" />
    <path
       d="m 192.07,131.37 c 0,0.563 -0.915,1.02 -2.045,1.02 -1.13,0 -2.045,-0.457 -2.045,-1.02 0,-0.565 0.915,-1.021 2.045,-1.021 1.13,0 2.045,0.456 2.045,1.021 z"
       style="stroke-linecap:round;stroke-linejoin:round;fill:#ffffff;stroke:#000000;stroke-opacity:1;stroke-width:0.3;stroke-dasharray:none" />
  </g>
  <g
     id="c#-key">
    <path
       d="m 182.44,131.04 c 0,0.949 -1.474,1.72 -3.293,1.72 -1.816,0 -3.291,-0.771 -3.291,-1.72 0,-0.95 1.475,-1.719 3.291,-1.719 1.819,0 3.293,0.769 3.293,1.719"
       style="stroke-linecap:round;stroke-linejoin:round;fill:#ffffff;stroke:#000000;stroke-opacity:1;stroke-width:0.3;stroke-dasharray:none" />
    <path
       d="m 182.44,131.04 c 0,0.949 -1.474,1.72 -3.293,1.72 -1.816,0 -3.291,-0.771 -3.291,-1.72 0,-0.95 1.475,-1.719 3.291,-1.719 1.819,0 3.293,0.769 3.293,1.719 z"
       style="stroke-linecap:round;stroke-linejoin:round;fill:#ffffff;stroke:#000000;stroke-opacity:1;stroke-width:0.3;stroke-dasharray:none" />
    <path
       d="m 181.2,131.37 c 0,0.563 -0.918,1.02 -2.048,1.02 -1.13,0 -2.046,-0.457 -2.046,-1.02 0,-0.565 0.916,-1.021 2.046,-1.021 1.13,0 2.048,0.456 2.048,1.021"
       style="stroke-linecap:round;stroke-linejoin:round;fill:#ffffff;stroke:#000000;stroke-opacity:1;stroke-width:0.3;stroke-dasharray:none" />
    <path
       d="m 181.2,131.37 c 0,0.563 -0.918,1.02 -2.048,1.02 -1.13,0 -2.046,-0.457 -2.046,-1.02 0,-0.565 0.916,-1.021 2.046,-1.021 1.13,0 2.048,0.456 2.048,1.021 z"
       style="stroke-linecap:round;stroke-linejoin:round;fill:#ffffff;stroke:#000000;stroke-opacity:1;stroke-width:0.3;stroke-dasharray:none" />
  </g>
  <g
     id="d#-key">
    <path
       d="m 171.92,122.65 c 0,-1.065 -1.473,-1.929 -3.292,-1.929 -1.818,0 -3.292,0.864 -3.292,1.929 0,1.065 1.474,1.93 3.292,1.93 1.819,0 3.292,-0.865 3.292,-1.93"
       style="stroke-linecap:round;stroke-linejoin:round;fill:#ffffff;stroke:#000000;stroke-opacity:1;stroke-width:0.3;stroke-dasharray:none" />
    <path
       d="m 171.92,122.65 c 0,-1.065 -1.473,-1.929 -3.292,-1.929 -1.818,0 -3.292,0.864 -3.292,1.929 0,1.065 1.474,1.93 3.292,1.93 1.819,0 3.292,-0.865 3.292,-1.93 z"
       style="stroke-linecap:round;stroke-linejoin:round;fill:#ffffff;stroke:#000000;stroke-opacity:1;stroke-width:0.3;stroke-dasharray:none" />
    <path
       d="m 170.67,122.28 c 0,-0.634 -0.917,-1.146 -2.046,-1.146 -1.13,0 -2.046,0.512 -2.046,1.146 0,0.632 0.916,1.146 2.046,1.146 1.129,0 2.046,-0.514 2.046,-1.146"
       style="stroke-linecap:round;stroke-linejoin:round;fill:#ffffff;stroke:#000000;stroke-opacity:1;stroke-width:0.3;stroke-dasharray:none" />
    <path
       d="m 170.67,122.28 c 0,-0.634 -0.917,-1.146 -2.046,-1.146 -1.13,0 -2.046,0.512 -2.046,1.146 0,0.632 0.916,1.146 2.046,1.146 1.129,0 2.046,-0.514 2.046,-1.146 z"
       style="stroke-linecap:round;stroke-linejoin:round;fill:#ffffff;stroke:#000000;stroke-opacity:1;stroke-width:0.3;stroke-dasharray:none" />
  </g>
  <g
     id="d-key">
    <path
       d="m 161.85,126.61 a 3.225,3.225 0 1 1 -6.449,0.001 3.225,3.225 0 0 1 6.449,-0.001"
       style="stroke-linecap:round;stroke-linejoin:round;fill:#ffffff;stroke:#000000;stroke-opacity:1;stroke-width:0.3;stroke-dasharray:none" />
    <path
       d="m 161.85,126.61 a 3.225,3.225 0 1 1 -6.449,0.001 3.225,3.225 0 0 1 6.449,-0.001 z"
       style="stroke-linecap:round;stroke-linejoin:round;fill:#ffffff;stroke:#000000;stroke-opacity:1;stroke-width:0.3;stroke-dasharray:none" />
    <path
       d="m 160.35,126.61 a 1.725,1.725 0 1 1 -3.45,0 1.726,1.726 0 1 1 3.45,0"
       style="stroke-linecap:round;stroke-linejoin:round;fill:#ffffff;stroke:#000000;stroke-opacity:1;stroke-width:0.3;stroke-dasharray:none" />
    <path
       d="m 160.35,126.61 a 1.725,1.725 0 1 1 -3.45,0 1.726,1.726 0 1 1 3.45,0 z"
       style="stroke-linecap:round;stroke-linejoin:round;fill:#ffffff;stroke:#000000;stroke-opacity:1;stroke-width:0.3;stroke-dasharray:none" />
  </g>
  <g
     id="e-key">
    <path
       d="m 152.3,126.61 a 3.225,3.225 0 1 1 -6.449,0.001 3.225,3.225 0 0 1 6.449,-0.001"
       style="stroke-linecap:round;stroke-linejoin:round;fill:#ffffff;stroke:#000000;stroke-opacity:1;stroke-width:0.3;stroke-dasharray:none" />
    <path
       d="m 152.3,126.61 a 3.225,3.225 0 1 1 -6.449,0.001 3.225,3.225 0 0 1 6.449,-0.001 z"
       style="stroke-linecap:round;stroke-linejoin:round;fill:#ffffff;stroke:#000000;stroke-opacity:1;stroke-width:0.3;stroke-dasharray:none" />
    <path
       d="m 150.8,126.61 a 1.7250001,1.7250001 0 1 1 -3.45,0.001 1.7250001,1.7250001 0 0 1 3.45,-0.001"
       style="stroke-linecap:round;stroke-linejoin:round;fill:#ffffff;stroke:#000000;stroke-opacity:1;stroke-width:0.3;stroke-dasharray:none" />
    <path
       d="m 150.8,126.61 a 1.7250001,1.7250001 0 1 1 -3.45,0.001 1.7250001,1.7250001 0 0 1 3.45,-0.001 z"
       style="stroke-linecap:round;stroke-linejoin:round;fill:#ffffff;stroke:#000000;stroke-opacity:1;stroke-width:0.3;stroke-dasharray:none" />
  </g>
  <g
     id="f-key">
    <path
       d="m 143.33,126.61 a 3.224,3.224 0 1 1 -6.448,0 3.224,3.224 0 1 1 6.448,0"
       style="stroke-linecap:round;stroke-linejoin:round;fill:#ffffff;stroke:#000000;stroke-opacity:1;stroke-width:0.3;stroke-dasharray:none" />
    <path
       d="m 143.33,126.61 a 3.224,3.224 0 1 1 -6.448,0 3.224,3.224 0 1 1 6.448,0 z"
       style="stroke-linecap:round;stroke-linejoin:round;fill:#ffffff;stroke:#000000;stroke-opacity:1;stroke-width:0.3;stroke-dasharray:none" />
    <path
       d="m 141.83,126.61 a 1.7265,1.7265 0 1 1 -3.453,0 1.7265,1.7265 0 0 1 3.453,0"
       style="stroke-linecap:round;stroke-linejoin:round;fill:#ffffff;stroke:#000000;stroke-opacity:1;stroke-width:0.3;stroke-dasharray:none" />
    <path
       d="m 141.83,126.61 a 1.7265,1.7265 0 1 1 -3.453,0 1.7265,1.7265 0 0 1 3.453,0 z"
       style="stroke-linecap:round;stroke-linejoin:round;fill:#ffffff;stroke:#000000;stroke-opacity:1;stroke-width:0.3;stroke-dasharray:none" />
  </g>
  <g
     id="f#-key">
    <path
       d="m 134.75,126.61 a 3.2240002,3.2240002 0 1 1 -6.448,0.002 3.2240002,3.2240002 0 0 1 6.448,-0.002"
       style="stroke-linecap:round;stroke-linejoin:round;fill:#ffffff;stroke:#000000;stroke-opacity:1;stroke-width:0.3;stroke-dasharray:none" />
    <path
       d="m 134.75,126.61 a 3.2240002,3.2240002 0 1 1 -6.448,0.002 3.2240002,3.2240002 0 0 1 6.448,-0.002 z"
       style="stroke-linecap:round;stroke-linejoin:round;fill:#ffffff;stroke:#000000;stroke-opacity:1;stroke-width:0.3;stroke-dasharray:none" />
    <path
       d="m 133.25,126.61 a 1.726,1.726 0 1 1 -3.451,0 1.726,1.726 0 0 1 3.451,0"
       style="stroke-linecap:round;stroke-linejoin:round;fill:#ffffff;stroke:#000000;stroke-opacity:1;stroke-width:0.3;stroke-dasharray:none" />
    <path
       d="m 133.25,126.61 a 1.726,1.726 0 1 1 -3.451,0 1.726,1.726 0 0 1 3.451,0 z"
       style="stroke-linecap:round;stroke-linejoin:round;fill:#ffffff;stroke:#000000;stroke-opacity:1;stroke-width:0.3;stroke-dasharray:none" />
  </g>
  <g
     id="a-key">
    <path
       d="m 111.75,126.61 a 3.225,3.225 0 1 1 -6.45,0 3.225,3.225 0 0 1 6.45,0"
       style="stroke-linecap:round;stroke-linejoin:round;fill:#ffffff;stroke:#000000;stroke-opacity:1;stroke-width:0.3;stroke-dasharray:none" />
    <path
       d="m 111.75,126.61 a 3.225,3.225 0 1 1 -6.45,0 3.225,3.225 0 0 1 6.45,0 z"
       style="stroke-linecap:round;stroke-linejoin:round;fill:#ffffff;stroke:#000000;stroke-opacity:1;stroke-width:0.3;stroke-dasharray:none" />
    <path
       d="m 110.26,126.61 a 1.7255,1.7255 0 1 1 -3.451,0 1.726,1.726 0 1 1 3.451,0"
       style="stroke-linecap:round;stroke-linejoin:round;fill:#ffffff;stroke:#000000;stroke-opacity:1;stroke-width:0.3;stroke-dasharray:none" />
    <path
       d="m 110.26,126.61 a 1.7255,1.7255 0 1 1 -3.451,0 1.726,1.726 0 1 1 3.451,0 z"
       style="stroke-linecap:round;stroke-linejoin:round;fill:#ffffff;stroke:#000000;stroke-opacity:1;stroke-width:0.3;stroke-dasharray:none" />
  </g>
  <g
     id="d#-trill-lever">
    <path
       d="m 153.97,131.36 c 0,0 0.023,-0.533 0.057,-0.932 0.02,-0.222 0.13,-0.463 0.343,-0.894 0.216,-0.431 0.556,-1.576 0.556,-2.224 0,-0.646 -0.277,-0.982 -0.899,-0.982 -0.621,0 -1.014,0.274 -1.014,1.229 0,0.709 0.31,1.64 0.31,2.272 0,0.63 -0.31,1.121 -0.31,1.531"
       style="stroke-linecap:round;stroke-linejoin:round;fill:#ffffff;stroke:#000000;stroke-opacity:1;stroke-width:0.3;stroke-dasharray:none" />
    <path
       d="m 153.97,131.36 c 0,0 0.023,-0.533 0.057,-0.932 0.02,-0.222 0.13,-0.463 0.343,-0.894 0.216,-0.431 0.556,-1.576 0.556,-2.224 0,-0.646 -0.277,-0.982 -0.899,-0.982 -0.621,0 -1.014,0.274 -1.014,1.229 0,0.709 0.31,1.64 0.31,2.272 0,0.63 -0.31,1.121 -0.31,1.531"
       style="stroke-linecap:round;stroke-linejoin:round;fill:#ffffff;stroke:#000000;stroke-opacity:1;stroke-width:0.3;stroke-dasharray:none" />
  </g>
  <g
     id="d-trill-lever">
    <path
       d="m 144.63,131.36 c 0,0 0.022,-0.533 0.056,-0.932 0.02,-0.222 0.129,-0.463 0.343,-0.894 0.217,-0.431 0.557,-1.576 0.557,-2.224 0,-0.646 -0.279,-0.982 -0.9,-0.982 -0.621,0 -1.013,0.274 -1.013,1.229 0,0.709 0.309,1.64 0.309,2.272 0,0.63 -0.309,1.121 -0.309,1.531"
       style="stroke-linecap:round;stroke-linejoin:round;fill:#ffffff;stroke:#000000;stroke-opacity:1;stroke-width:0.3;stroke-dasharray:none" />
    <path
       d="m 144.63,131.36 c 0,0 0.022,-0.533 0.056,-0.932 0.02,-0.222 0.129,-0.463 0.343,-0.894 0.217,-0.431 0.557,-1.576 0.557,-2.224 0,-0.646 -0.279,-0.982 -0.9,-0.982 -0.621,0 -1.013,0.274 -1.013,1.229 0,0.709 0.309,1.64 0.309,2.272 0,0.63 -0.309,1.121 -0.309,1.531"
       style="stroke-linecap:round;stroke-linejoin:round;fill:#ffffff;stroke:#000000;stroke-opacity:1;stroke-width:0.3;stroke-dasharray:none" />
  </g>
  <g
     id="e-mechanism-ar">
    <path
       d="m 130.26,130.56 c 0,0 -0.409,-0.624 -1.19,-1.246 -0.784,-0.621 -1.048,-1.382 -1.048,-1.933 v -2.503 c 0,-0.357 -0.14,-0.434 -0.294,-0.589 -0.156,-0.156 -0.357,-0.17 -0.519,0 -0.275,0.294 -0.294,0.293 -0.294,0.795 v 1.813 c 0,0.327 0.122,0.881 0.468,1.519 0.345,0.638 0.795,0.898 1.192,1.347 0.396,0.449 0.666,0.794 0.666,0.794"
       style="stroke-linecap:round;stroke-linejoin:round;fill:#ffffff;stroke:#000000;stroke-opacity:1;stroke-width:0.3;stroke-dasharray:none" />
    <path
       d="m 130.26,130.56 c 0,0 -0.409,-0.624 -1.19,-1.246 -0.784,-0.621 -1.048,-1.382 -1.048,-1.933 v -2.503 c 0,-0.357 -0.14,-0.434 -0.294,-0.589 -0.156,-0.156 -0.357,-0.17 -0.519,0 -0.275,0.294 -0.294,0.293 -0.294,0.795 v 1.813 c 0,0.327 0.122,0.881 0.468,1.519 0.345,0.638 0.795,0.898 1.192,1.347 0.396,0.449 0.666,0.794 0.666,0.794"
       style="stroke-linecap:round;stroke-linejoin:round;fill:#ffffff;stroke:#000000;stroke-opacity:1;stroke-width:0.3;stroke-dasharray:none" />
  </g>
  <g
     id="ice-lever-a#">
    <path
       d="m 127.01,131.36 c 0,0.641 -0.005,0.928 0.109,1.109 0.147,0.235 0.246,0.343 0.358,0.343 0.11,0 0.291,-0.258 0.446,-0.406 0.157,-0.15 0.111,-0.472 0.111,-1.111 0,-0.132 0.576,-0.137 0.947,-0.137 h 5.176 c 0.647,0 1.632,-1.084 1.632,-1.632 0,-0.546 -0.606,-0.943 -1.08,-0.943 -0.473,0 -0.72,0.231 -0.861,0.911 -0.121,0.579 -0.443,0.924 -0.601,0.984 -0.157,0.06 -0.528,0.095 -1.096,0.095 h -3.179 c -0.697,0 -1.962,0.187 -1.962,0.787"
       style="stroke-linecap:round;stroke-linejoin:round;fill:#ffffff;stroke:#000000;stroke-opacity:1;stroke-width:0.3;stroke-dasharray:none" />
    <path
       d="m 127.01,131.36 c 0,0.641 -0.005,0.928 0.109,1.109 0.147,0.235 0.246,0.343 0.358,0.343 0.11,0 0.291,-0.258 0.446,-0.406 0.157,-0.15 0.111,-0.472 0.111,-1.111 0,-0.132 0.576,-0.137 0.947,-0.137 h 5.176 c 0.647,0 1.632,-1.084 1.632,-1.632 0,-0.546 -0.606,-0.943 -1.08,-0.943 -0.473,0 -0.72,0.231 -0.861,0.911 -0.121,0.579 -0.443,0.924 -0.601,0.984 -0.157,0.06 -0.528,0.095 -1.096,0.095 h -3.179 c -0.697,0 -1.962,0.187 -1.962,0.787 z"
       style="stroke-linecap:round;stroke-linejoin:round;fill:#ffffff;stroke:#000000;stroke-opacity:1;stroke-width:0.3;stroke-dasharray:none" />
  </g>
  <g
     id="briccialdi-key">
    <path
       d="m 101.34,135.32 h -5.804 c -1.039,0 -1.716,0.063 -2.002,0.175 -0.288,0.108 -0.876,0.739 -1.098,1.796 -0.257,1.242 -0.707,1.663 -1.572,1.663 -0.867,0 -1.972,-0.723 -1.972,-1.723 0,-1.002 1.799,-2.978 2.977,-2.978 h 9.455 c 0.478,0 0.82,1.067 0.016,1.067"
       style="stroke-linecap:round;stroke-linejoin:round;fill:#ffffff;stroke:#000000;stroke-opacity:1;stroke-width:0.3;stroke-dasharray:none" />
    <path
       d="m 101.34,135.32 h -5.804 c -1.039,0 -1.716,0.063 -2.002,0.175 -0.288,0.108 -0.876,0.739 -1.098,1.796 -0.257,1.242 -0.707,1.663 -1.572,1.663 -0.867,0 -1.972,-0.723 -1.972,-1.723 0,-1.002 1.799,-2.978 2.977,-2.978 h 9.455 c 0.478,0 0.82,1.067 0.016,1.067 z"
       style="stroke-linecap:round;stroke-linejoin:round;fill:#ffffff;stroke:#000000;stroke-opacity:1;stroke-width:0.3;stroke-dasharray:none" />
  </g>
  <g
     id="g#-key">
    <path
       d="m 127.04,124.87 a 3.224,3.224 0 0 1 -6.448,0 3.224,3.224 0 1 1 6.448,0"
       style="stroke-linecap:round;stroke-linejoin:round;fill:#ffffff;stroke:#000000;stroke-opacity:1;stroke-width:0.3;stroke-dasharray:none" />
    <path
       d="m 127.04,124.87 a 3.224,3.224 0 0 1 -6.448,0 3.224,3.224 0 1 1 6.448,0 z"
       style="stroke-linecap:round;stroke-linejoin:round;fill:#ffffff;stroke:#000000;stroke-opacity:1;stroke-width:0.3;stroke-dasharray:none" />
    <path
       d="m 125.54,124.87 a 1.7260003,1.7260003 0 1 1 -3.452,-0.002 1.7260003,1.7260003 0 0 1 3.452,0.002"
       style="stroke-linecap:round;stroke-linejoin:round;fill:#ffffff;stroke:#000000;stroke-opacity:1;stroke-width:0.3;stroke-dasharray:none" />
    <path
       d="m 125.54,124.87 a 1.7260003,1.7260003 0 1 1 -3.452,-0.002 1.7260003,1.7260003 0 0 1 3.452,0.002 z"
       style="stroke-linecap:round;stroke-linejoin:round;fill:#ffffff;stroke:#000000;stroke-opacity:1;stroke-width:0.3;stroke-dasharray:none" />
  </g>
  <g
     id="g-key">
    <path
       d="m 119.17,124.87 a 3.225,3.225 0 1 1 -6.45,0 3.225,3.225 0 0 1 6.45,0"
       style="stroke-linecap:round;stroke-linejoin:round;fill:#ffffff;stroke:#000000;stroke-opacity:1;stroke-width:0.3;stroke-dasharray:none" />
    <path
       d="m 119.17,124.87 a 3.225,3.225 0 1 1 -6.45,0 3.225,3.225 0 0 1 6.45,0 z"
       style="stroke-linecap:round;stroke-linejoin:round;fill:#ffffff;stroke:#000000;stroke-opacity:1;stroke-width:0.3;stroke-dasharray:none" />
    <path
       d="m 117.67,124.87 a 1.7255,1.7255 0 0 1 -3.451,0 c 0,-0.953 0.773,-1.728 1.726,-1.728 0.953,0 1.725,0.775 1.725,1.728"
       style="stroke-linecap:round;stroke-linejoin:round;fill:#ffffff;stroke:#000000;stroke-opacity:1;stroke-width:0.3;stroke-dasharray:none" />
    <path
       d="m 117.67,124.87 a 1.7255,1.7255 0 0 1 -3.451,0 c 0,-0.953 0.773,-1.728 1.726,-1.728 0.953,0 1.725,0.775 1.725,1.728 z"
       style="stroke-linecap:round;stroke-linejoin:round;fill:#ffffff;stroke:#000000;stroke-opacity:1;stroke-width:0.3;stroke-dasharray:none" />
  </g>
  <g
     id="g#-lever">
    <path
       d="m 119.45,128.73 v -6.172 c 0,-0.872 -0.921,-0.95 -1.858,-1.289 -0.938,-0.34 -3.034,-0.839 -3.034,-2.775 0,-0.898 1.118,-1.197 1.776,-1.197 0.658,0 3.832,1.217 3.832,4.15 v 7.243 c 0,0.5 -0.003,0.692 -0.36,0.692 -0.356,0 -0.356,-0.472 -0.356,-0.652"
       style="stroke-linecap:round;stroke-linejoin:round;fill:#ffffff;stroke:#000000;stroke-opacity:1;stroke-width:0.3;stroke-dasharray:none" />
    <path
       d="m 119.45,128.73 v -6.172 c 0,-0.872 -0.921,-0.95 -1.858,-1.289 -0.938,-0.34 -3.034,-0.839 -3.034,-2.775 0,-0.898 1.118,-1.197 1.776,-1.197 0.658,0 3.832,1.217 3.832,4.15 v 7.243 c 0,0.5 -0.003,0.692 -0.36,0.692 -0.356,0 -0.356,-0.472 -0.356,-0.652 z"
       style="stroke-linecap:round;stroke-linejoin:round;fill:#ffffff;stroke:#000000;stroke-opacity:1;stroke-width:0.3;stroke-dasharray:none" />
  </g>
  <g
     id="b-key">
    <path
       d="m 104.9,126.61 a 3.2240002,3.2240002 0 1 1 -6.448,0.002 3.2240002,3.2240002 0 0 1 6.448,-0.002"
       style="stroke-linecap:round;stroke-linejoin:round;fill:#ffffff;stroke:#000000;stroke-opacity:1;stroke-width:0.3;stroke-dasharray:none" />
    <path
       d="m 104.9,126.61 a 3.2240002,3.2240002 0 1 1 -6.448,0.002 3.2240002,3.2240002 0 0 1 6.448,-0.002 z"
       style="stroke-linecap:round;stroke-linejoin:round;fill:#ffffff;stroke:#000000;stroke-opacity:1;stroke-width:0.3;stroke-dasharray:none" />
    <path
       d="m 103.4,126.61 a 1.726,1.726 0 1 1 -3.451,0 1.726,1.726 0 0 1 3.451,0"
       style="stroke-linecap:round;stroke-linejoin:round;fill:#ffffff;stroke:#000000;stroke-opacity:1;stroke-width:0.3;stroke-dasharray:none" />
    <path
       d="m 103.4,126.61 a 1.726,1.726 0 1 1 -3.451,0 1.726,1.726 0 0 1 3.451,0 z"
       style="stroke-linecap:round;stroke-linejoin:round;fill:#ffffff;stroke:#000000;stroke-opacity:1;stroke-width:0.3;stroke-dasharray:none" />
  </g>
  <g
     id="c-key">
    <path
       d="m 97.934,126.61 a 2.538,2.538 0 1 1 -5.076,0 2.538,2.538 0 0 1 5.076,0"
       style="stroke-linecap:round;stroke-linejoin:round;fill:#ffffff;stroke:#000000;stroke-opacity:1;stroke-width:0.3;stroke-dasharray:none" />
    <path
       d="m 97.934,126.61 a 2.538,2.538 0 1 1 -5.076,0 2.538,2.538 0 0 1 5.076,0 z"
       style="stroke-linecap:round;stroke-linejoin:round;fill:#ffffff;stroke:#000000;stroke-opacity:1;stroke-width:0.3;stroke-dasharray:none" />
    <path
       d="m 96.754,126.61 a 1.358,1.358 0 1 1 -2.716,0 1.358,1.358 0 0 1 2.716,0"
       style="stroke-linecap:round;stroke-linejoin:round;fill:#ffffff;stroke:#000000;stroke-opacity:1;stroke-width:0.3;stroke-dasharray:none" />
    <path
       d="m 96.754,126.61 a 1.358,1.358 0 1 1 -2.716,0 1.358,1.358 0 0 1 2.716,0 z"
       style="stroke-linecap:round;stroke-linejoin:round;fill:#ffffff;stroke:#000000;stroke-opacity:1;stroke-width:0.3;stroke-dasharray:none" />
  </g>
  <g
     id="c-lid">
    <path
       d="m 87.571,126.93 a 2.2135001,2.2135001 0 1 1 -4.427,-0.001 2.2135001,2.2135001 0 0 1 4.427,0.001"
       style="stroke-linecap:round;stroke-linejoin:round;fill:#ffffff;stroke:#000000;stroke-opacity:1;stroke-width:0.3;stroke-dasharray:none" />
    <path
       d="m 87.571,126.93 a 2.2135001,2.2135001 0 1 1 -4.427,-0.001 2.2135001,2.2135001 0 0 1 4.427,0.001 z"
       style="stroke-linecap:round;stroke-linejoin:round;fill:#ffffff;stroke:#000000;stroke-opacity:1;stroke-width:0.3;stroke-dasharray:none" />
    <path
       d="m 86.542,126.93 a 1.186,1.186 0 1 1 -2.371,-0.001 1.186,1.186 0 0 1 2.371,0.001"
       style="stroke-linecap:round;stroke-linejoin:round;fill:#ffffff;stroke:#000000;stroke-opacity:1;stroke-width:0.3;stroke-dasharray:none" />
    <path
       d="m 86.542,126.93 a 1.186,1.186 0 1 1 -2.371,-0.001 1.186,1.186 0 0 1 2.371,0.001 z"
       style="stroke-linecap:round;stroke-linejoin:round;fill:#ffffff;stroke:#000000;stroke-opacity:1;stroke-width:0.3;stroke-dasharray:none" />
  </g>
</svg>
