<svg xmlns="http://www.w3.org/2000/svg" viewBox="-12.11 116.83 216.48 22.61">
    <style>
        .stroke-default {
            stroke: #2c292a;
            stroke-width: 0.378;
        }
        .stroke-thick {
            stroke: #2c292a;
            stroke-width: 0.484;
        }
        .fill-white {
            fill: #fff;
        }
        .fill-red {
            fill: #c52226;
        }
        .fill-gray {
            fill: #a8aaad;
        }
        .fill-none {
            fill: none;
        }
    </style>
    <g clip-path="url(#clip_0)" data-note="C4" stroke-linecap="round" stroke-linejoin="round">
        <path class="fill-red"
            d="M108.9 136.79s0 .507-1.006.507-4.109-.017-6.29 0c-2.181.015-2.271 1.284-4.423 1.284-3.552 0-3.515-1.791-3.515-1.791 0-.644.169-.644 1.241-.644h13.583c.358 0 .41.644.41.644" />
        <path class="fill-none stroke-default"
            d="M108.9 136.79s0 .507-1.006.507-4.109-.017-6.29 0c-2.181.015-2.271 1.284-4.423 1.284-3.552 0-3.515-1.791-3.515-1.791 0-.644.169-.644 1.241-.644h13.583c.358 0 .41.644.41.644z" />
        <path id="low-c-key" class="fill-white"
            d="M202.76 122.74s.092-.446.5-.237c.433.216.635 1.727.635 3.823 0 2.097-.202 3.607-.635 3.824-.408.209-.5-.238-.5-.238" />
        <path class="fill-none stroke-default"
            d="M202.76 122.74s.092-.446.5-.237c.433.216.635 1.727.635 3.823 0 2.097-.202 3.607-.635 3.824-.408.209-.5-.238-.5-.238" />
        <path id="c-sharp-key" class="fill-white"
            d="M202.34 123.03s.015-.384.267-.384c.362 0 .654 1.678.654 3.685 0 2.008-.292 3.685-.654 3.685-.252 0-.267-.383-.267-.383" />
        <path class="fill-none stroke-default"
            d="M202.34 123.03s.015-.384.267-.384c.362 0 .654 1.678.654 3.685 0 2.008-.292 3.685-.654 3.685-.252 0-.267-.383-.267-.383" />
        <path class="fill-white"
            d="M80.846 129.48s.076.093.076.239c0 .656-.995 1.187-2.22 1.187s-2.218-.531-2.218-1.187c0-.177.038-.33.038-.33" />
        <path class="fill-none stroke-default"
            d="M80.846 129.48s.076.093.076.239c0 .656-.995 1.187-2.22 1.187s-2.218-.531-2.218-1.187c0-.177.038-.33.038-.33" />
        <path class="fill-white"
            d="M77.129 130.56c.516.218.918.51.922.631.007.178-.158 1.755-.151 1.917.007.162.338.334.436.376a.202.202 0 0 0 .199-.006c.091-.048.406-.24.399-.401-.007-.163-.18-1.58-.186-1.759-.004-.121.633-.454 1.156-.653" />
        <path class="fill-none stroke-default"
            d="M77.129 130.56c.516.218.918.51.922.631.007.178-.158 1.755-.151 1.917.007.162.338.334.436.376a.202.202 0 0 0 .199-.006c.091-.048.406-.24.399-.401-.007-.163-.18-1.58-.186-1.759-.004-.121.633-.454 1.156-.653" />
        <path class="fill-white"
            d="M76.484 129.18c0-.642.993-1.16 2.219-1.16 1.224 0 2.219.518 2.219 1.16 0 .639-.995 1.156-2.219 1.156-1.226 0-2.219-.517-2.219-1.156" />
        <path class="fill-none stroke-default"
            d="M76.484 129.18c0-.642.993-1.16 2.219-1.16 1.224 0 2.219.518 2.219 1.16 0 .639-.995 1.156-2.219 1.156-1.226 0-2.219-.517-2.219-1.156Z" />
        <path class="fill-white"
            d="M98.352 129.83s.098.12.098.308c0 .838-1.272 1.516-2.839 1.516-1.569 0-2.838-.678-2.838-1.516 0-.226.048-.424.048-.424" />
        <path class="fill-none stroke-thick"
            d="M98.352 129.83s.098.12.098.308c0 .838-1.272 1.516-2.839 1.516-1.569 0-2.838-.678-2.838-1.516 0-.226.048-.424.048-.424" />
        <path class="fill-white"
            d="M92.773 129.44c0-.818 1.27-1.481 2.838-1.481 1.567 0 2.839.663 2.839 1.481 0 .818-1.272 1.482-2.839 1.482-1.568 0-2.838-.664-2.838-1.482" />
        <path class="fill-none stroke-thick"
            d="M92.773 129.44c0-.818 1.27-1.481 2.838-1.481 1.567 0 2.839.663 2.839 1.481 0 .818-1.272 1.482-2.839 1.482-1.568 0-2.838-.664-2.838-1.482Z" />
        <path class="fill-white"
            d="M75.967 129.48s.076.093.076.239c0 .656-.992 1.187-2.218 1.187s-2.22-.531-2.22-1.187c0-.177.038-.33.038-.33" />
        <path class="fill-none stroke-default"
            d="M75.967 129.48s.076.093.076.239c0 .656-.992 1.187-2.218 1.187s-2.22-.531-2.22-1.187c0-.177.038-.33.038-.33" />
        <path class="fill-white"
            d="M72.252 130.56c.515.218.917.51.923.631.006.178-.158 1.755-.152 1.917.008.162.338.334.436.376a.2.2 0 0 0 .198-.006c.092-.048.407-.24.401-.401-.008-.163-.181-1.58-.188-1.759-.004-.121.633-.454 1.156-.653" />
        <path class="fill-none stroke-default"
            d="M72.252 130.56c.515.218.917.51.923.631.006.178-.158 1.755-.152 1.917.008.162.338.334.436.376a.2.2 0 0 0 .198-.006c.092-.048.407-.24.401-.401-.008-.163-.181-1.58-.188-1.759-.004-.121.633-.454 1.156-.653" />
        <path class="fill-white"
            d="M71.605 129.18c0-.642.994-1.16 2.221-1.16 1.225 0 2.217.518 2.217 1.16 0 .639-.992 1.156-2.217 1.156-1.227 0-2.221-.517-2.221-1.156" />
        <path class="fill-none stroke-default"
            d="M71.605 129.18c0-.642.994-1.16 2.221-1.16 1.225 0 2.217.518 2.217 1.16 0 .639-.992 1.156-2.217 1.156-1.227 0-2.221-.517-2.221-1.156Z" />
        <path class="fill-white"
            d="M-11.617 126.35c0 2.167.51 2.862.51 2.862l213.45.419s.292-1.235.292-3.271c0-2.034-.292-3.27-.292-3.27l-213.45.397s-.51.697-.51 2.863" />
        <path class="fill-none stroke-default"
            d="M-11.617 126.35c0 2.167.51 2.862.51 2.862l213.45.419s.292-1.235.292-3.271c0-2.034-.292-3.27-.292-3.27l-213.45.397s-.51.697-.51 2.863z" />
        <path id="b-key" class="fill-white"
            d="M161.79 122.74s.106-.446.58-.237c.495.216.522 1.727.522 3.823 0 2.097-.027 3.607-.522 3.824-.474.209-.58-.238-.58-.238" />
        <path class="fill-none stroke-default"
            d="M161.79 122.74s.106-.446.58-.237c.495.216.522 1.727.522 3.823 0 2.097-.027 3.607-.522 3.824-.474.209-.58-.238-.58-.238" />
        <path id="a-key" class="fill-white"
            d="M161.17 123.17s.158-.521.446-.521c.419 0 .554 1.677.554 3.684 0 2.008-.135 3.686-.554 3.686-.288 0-.446-.415-.446-.415" />
        <path class="fill-none stroke-default"
            d="M161.17 123.17s.158-.521.446-.521c.419 0 .554 1.677.554 3.684 0 2.008-.135 3.686-.554 3.686-.288 0-.446-.415-.446-.415" />
        <path id="g-key" class="fill-white"
            d="M46.656 129.3c0 .351.397.635.885.635s.883-.284.883-.635v-5.896c0-.351-.395-.635-.883-.635s-.885.284-.885.635z" />
        <path class="fill-none stroke-default"
            d="M46.656 129.3c0 .351.397.635.885.635s.883-.284.883-.635v-5.896c0-.351-.395-.635-.883-.635s-.885.284-.885.635v5.896z" />
        <path id="g-sharp-key" class="fill-white"
            d="M47.17 129.47c0 .371.166.67.37.67s.371-.299.371-.67v-6.227c0-.37-.167-.669-.371-.669s-.37.299-.37.669z" />
        <path class="fill-none stroke-default"
            d="M47.17 129.47c0 .371.166.67.37.67s.371-.299.371-.67v-6.227c0-.37-.167-.669-.371-.669s-.37.299-.37.669v6.227Z" />
        <path id="f-key" class="fill-white"
            d="M59.91 129.3c0 .351.396.635.883.635.488 0 .885-.284.885-.635v-5.896c0-.351-.397-.635-.885-.635-.487 0-.883.284-.883.635Z" />
        <path class="fill-none stroke-default"
            d="M59.91 129.3c0 .351.396.635.883.635.488 0 .885-.284.885-.635v-5.896c0-.351-.397-.635-.885-.635-.487 0-.883.284-.883.635v5.896Z" />
        <path id="f-sharp-key" class="fill-white"
            d="M60.424 129.47c0 .371.164.67.368.67.206 0 .372-.299.372-.67v-6.227c0-.37-.166-.669-.372-.669-.204 0-.368.299-.368.669Z" />
        <path class="fill-none stroke-default"
            d="M60.424 129.47c0 .371.164.67.368.67.206 0 .372-.299.372-.67v-6.227c0-.37-.166-.669-.372-.669-.204 0-.368.299-.368.669v6.227Z" />
        <path id="e-key" class="fill-white"
            d="M129.24 131.04a.852.852 0 0 0-.666.317v1.079a.855.855 0 0 0 1.333 0v-1.079a.854.854 0 0 0-.667-.317" />
        <path class="fill-none stroke-default"
            d="M129.24 131.04a.852.852 0 0 0-.666.317v1.079a.855.855 0 0 0 1.333 0v-1.079a.854.854 0 0 0-.667-.317Z" />
        <path class="fill-white" d="M155.37 133.18H71.097v-1.078h84.273z" />
        <path class="fill-none stroke-default"
            d="M155.37 133.18H71.097v-1.078h84.273z" />
        <path class="fill-white" d="M159.51 131.64H98.454v-1.078h61.056z" />
        <path class="fill-none stroke-default"
            d="M159.51 131.64H98.454v-1.078h61.056z" />
        <path class="fill-white" d="M156.96 132.71a.857.857 0 0 0-1.522-.538v1.078a.856.856 0 0 0 1.522-.54" />
        <path class="fill-none stroke-default"
            d="M156.96 132.71a.857.857 0 0 0-1.522-.538v1.078a.856.856 0 0 0 1.522-.54Z" />
        <path class="fill-white"
            d="M69.638 132.71a.855.855 0 0 1 1.521-.538v1.078a.853.853 0 0 1-.666.316.854.854 0 0 1-.855-.856" />
        <path class="fill-none stroke-default"
            d="M69.638 132.71a.855.855 0 0 1 1.521-.538v1.078a.853.853 0 0 1-.666.316.854.854 0 0 1-.855-.856Z" />
        <path class="fill-white"
            d="M144.18 131.85c-.205 0-.388.124-.507.319v1.078c.119.194.302.317.507.317.203 0 .388-.123.506-.317v-1.078c-.118-.195-.303-.319-.506-.319" />
        <path class="fill-none stroke-default"
            d="M144.18 131.85c-.205 0-.388.124-.507.319v1.078c.119.194.302.317.507.317.203 0 .388-.123.506-.317v-1.078c-.118-.195-.303-.319-.506-.319Z" />
        <path class="fill-white"
            d="M153.52 131.85c-.205 0-.387.124-.508.319v1.078c.121.194.303.317.508.317.204 0 .387-.123.506-.317v-1.078c-.119-.195-.302-.319-.506-.319" />
        <path class="fill-none stroke-default"
            d="M153.52 131.85c-.205 0-.387.124-.508.319v1.078c.121.194.303.317.508.317.204 0 .387-.123.506-.317v-1.078c-.119-.195-.302-.319-.506-.319Z" />
        <path class="fill-white" d="M159.51 132.44H81.687v-1.078h77.823z" />
        <path class="fill-none stroke-default"
            d="M159.51 132.44H81.687v-1.078h77.823z" />
        <path class="fill-white" d="M80.16 131.9a.856.856 0 0 1 1.523-.539v1.078a.855.855 0 0 1-1.523-.539" />
        <path class="fill-none stroke-default"
            d="M80.16 131.9a.856.856 0 0 1 1.523-.539v1.078a.855.855 0 0 1-1.523-.539Z" />
        <path class="fill-white"
            d="M133.74 130.99c-.204 0-.386.123-.505.316v1.079c.119.194.301.318.505.318.206 0 .388-.124.509-.318v-1.079c-.121-.193-.303-.316-.509-.316" />
        <path class="fill-none stroke-default"
            d="M133.74 130.99c-.204 0-.386.123-.505.316v1.079c.119.194.301.318.505.318.206 0 .388-.124.509-.318v-1.079c-.121-.193-.303-.316-.509-.316Z" />
        <path class="fill-white"
            d="M152.03 130.99c-.204 0-.388.123-.508.316v1.079c.12.194.304.318.508.318.204 0 .387-.124.507-.318v-1.079c-.12-.193-.303-.316-.507-.316" />
        <path class="fill-none stroke-default"
            d="M152.03 130.99c-.204 0-.388.123-.508.316v1.079c.12.194.304.318.508.318.204 0 .387-.124.507-.318v-1.079c-.12-.193-.303-.316-.507-.316Z" />
        <path class="fill-white" d="M160.61 129.36h-1.004v2.496h1.004z" />
        <path class="fill-none stroke-default"
            d="M160.61 129.36h-1.004v2.496h1.004z" />
        <path class="fill-white" d="M156.52 129.47h-1.005v1.898h1.005z" />
        <path class="fill-none stroke-default"
            d="M156.52 129.47h-1.005v1.898h1.005z" />
        <path class="fill-white" d="M161.03 131.9a.856.856 0 0 0-1.522-.539v1.078a.855.855 0 0 0 1.522-.539" />
        <path class="fill-none stroke-default"
            d="M161.03 131.9a.856.856 0 0 0-1.522-.539v1.078a.855.855 0 0 0 1.522-.539Z" />
        <path class="fill-white"
            d="M183.22 123c.273-.004.347 0 .516.408.164.408.665 1.135.27 1.316-.391.18-.642.296-.791-.036-.146-.333-.297-1.137-.297-1.316 0-.178.168-.371.302-.372" />
        <path class="fill-none stroke-default"
            d="M183.22 123c.273-.004.347 0 .516.408.164.408.665 1.135.27 1.316-.391.18-.642.296-.791-.036-.146-.333-.297-1.137-.297-1.316 0-.178.168-.371.302-.372Z" />
        <path class="fill-white"
            d="M183.51 124.95c.321-.062.66-.061.812 0 .151.06.197.843.197 1.154 0 .312.029 2.112-.229 2.187-.257.075-.813-.217-.849-.453-.036-.237.006-1.479 0-1.896-.005-.418-.104-.958.069-.992" />
        <path class="fill-none stroke-default"
            d="M183.51 124.95c.321-.062.66-.061.812 0 .151.06.197.843.197 1.154 0 .312.029 2.112-.229 2.187-.257.075-.813-.217-.849-.453-.036-.237.006-1.479 0-1.896-.005-.418-.104-.958.069-.992Z" />
        <path class="fill-white"
            d="M186.84 130.59s-.113-.139-.113-.357c0-.971 1.473-1.761 3.293-1.761 1.818 0 3.292.79 3.292 1.761 0 .263-.057.491-.057.491" />
        <path class="fill-none stroke-default"
            d="M186.84 130.59s-.113-.139-.113-.357c0-.971 1.473-1.761 3.293-1.761 1.818 0 3.292.79 3.292 1.761 0 .263-.057.491-.057.491" />
        <path class="fill-white" d="M193.05 127.61h-28.522v-1.078h28.522z" />
        <path class="fill-none stroke-default"
            d="M193.05 127.61h-28.522v-1.078h28.522z" />
        <path class="fill-white" d="M194.58 127.06a.857.857 0 0 0-1.523-.539v1.078a.857.857 0 0 0 1.523-.539" />
        <path class="fill-none stroke-default"
            d="M194.58 127.06a.857.857 0 0 0-1.523-.539v1.078a.857.857 0 0 0 1.523-.539Z" />
        <path class="fill-white" d="M163.01 127.06a.857.857 0 0 1 1.523-.539v1.078a.856.856 0 0 1-1.523-.539" />
        <path class="fill-none stroke-default"
            d="M163.01 127.06a.857.857 0 0 1 1.523-.539v1.078a.856.856 0 0 1-1.523-.539Z" />
        <path class="fill-white"
            d="M182.63 126.21c-.27 0-.51.124-.667.317v1.079a.858.858 0 0 0 1.334 0v-1.079a.857.857 0 0 0-.667-.317" />
        <path class="fill-none stroke-default"
            d="M182.63 126.21c-.27 0-.51.124-.667.317v1.079a.858.858 0 0 0 1.334 0v-1.079a.857.857 0 0 0-.667-.317Z" />
        <path class="fill-white"
            d="M96.874 130.93a.852.852 0 0 0-.667.316v1.08a.853.853 0 0 0 .667.317.853.853 0 0 0 .665-.317v-1.08a.852.852 0 0 0-.665-.316" />
        <path class="fill-none stroke-default"
            d="M96.874 130.93a.852.852 0 0 0-.667.316v1.08a.853.853 0 0 0 .667.317.853.853 0 0 0 .665-.317v-1.08a.852.852 0 0 0-.665-.316Z" />
        <path class="fill-white" d="M124.86 131.27h-12.359v-1.078h12.359z" />
        <path class="fill-none stroke-default"
            d="M124.86 131.27h-12.359v-1.078h12.359z" />
        <path class="fill-white" d="M110.98 130.72a.857.857 0 0 1 1.522-.539v1.078a.857.857 0 0 1-1.522-.539" />
        <path class="fill-none stroke-default"
            d="M110.98 130.72a.857.857 0 0 1 1.522-.539v1.078a.857.857 0 0 1-1.522-.539Z" />
        <path class="fill-white" d="M126.51 130.72a.857.857 0 0 0-1.523-.539v1.078a.858.858 0 0 0 1.523-.539" />
        <path class="fill-none stroke-default"
            d="M126.51 130.72a.857.857 0 0 0-1.523-.539v1.078a.858.858 0 0 0 1.523-.539Z" />
        <path class="fill-white"
            d="M171.52 126.21a.86.86 0 0 0-.668.317v1.079a.854.854 0 0 0 1.333 0v-1.079a.853.853 0 0 0-.665-.317" />
        <path class="fill-none stroke-default"
            d="M171.52 126.21a.86.86 0 0 0-.668.317v1.079a.854.854 0 0 0 1.333 0v-1.079a.853.853 0 0 0-.665-.317Z" />
        <path class="fill-white"
            d="M192.16 129.73s.103-.46-.279-.639c-.624-.29-.746-.487-.746-.637 0-.219.417-1.002.417-1.729 0-.2-.323-.424-.419-.48-.063-.041-.12-.044-.198 0-.094.056-.418.28-.418.48s-.09 1.246-.232 1.54c-.065.136-.769.417-1.423.639-.449.15-.48.451-.544.662" />
        <path class="fill-none stroke-default"
            d="M192.16 129.73s.103-.46-.279-.639c-.624-.29-.746-.487-.746-.637 0-.219.417-1.002.417-1.729 0-.2-.323-.424-.419-.48-.063-.041-.12-.044-.198 0-.094.056-.418.28-.418.48s-.09 1.246-.232 1.54c-.065.136-.769.417-1.423.639-.449.15-.48.451-.544.662" />
        <path class="fill-white"
            d="M175.97 130.59s-.113-.139-.113-.357c0-.971 1.474-1.761 3.291-1.761 1.819 0 3.293.79 3.293 1.761 0 .263-.056.491-.056.491" />
        <path class="fill-none stroke-default"
            d="M175.97 130.59s-.113-.139-.113-.357c0-.971 1.474-1.761 3.291-1.761 1.819 0 3.293.79 3.293 1.761 0 .263-.056.491-.056.491" />
        <path class="fill-white"
            d="M181.29 129.73s.102-.46-.28-.639c-.625-.29-.964-.487-.964-.637 0-.219.195-1.529.195-1.729s-.324-.424-.417-.48c-.066-.041-.122-.044-.199 0-.095.056-.418.28-.418.48s-.014 1.32-.014 1.54c0 .151-.549.417-1.201.639-.449.15-.483.451-.544.662" />
        <path class="fill-none stroke-default"
            d="M181.29 129.73s.102-.46-.28-.639c-.625-.29-.964-.487-.964-.637 0-.219.195-1.529.195-1.729s-.324-.424-.417-.48c-.066-.041-.122-.044-.199 0-.095.056-.418.28-.418.48s-.014 1.32-.014 1.54c0 .151-.549.417-1.201.639-.449.15-.483.451-.544.662" />
        <path class="fill-red"
            d="M168.62 132.76c2.652 0 3.136-1.831 3.703-1.831.379 0 1.017.111 1.397.111.376 0 .495-.229.598-.691.048-.215.525-3.691.525-3.891s-.326-.422-.418-.479c-.065-.042-.121-.044-.2 0-.096.057-.419.279-.419.479s-.332 3.379-.332 3.6c0 .148-.134.291-.913.291h-4.986c-.496 0-.733-.224-.898-.199-.164.022-.189.255-.189.576s-.345 2.034 2.132 2.034" />
        <path class="fill-none stroke-default"
            d="M168.62 132.76c2.652 0 3.136-1.831 3.703-1.831.379 0 1.017.111 1.397.111.376 0 .495-.229.598-.691.048-.215.525-3.691.525-3.891s-.326-.422-.418-.479c-.065-.042-.121-.044-.2 0-.096.057-.419.279-.419.479s-.332 3.379-.332 3.6c0 .148-.134.291-.913.291h-4.986c-.496 0-.733-.224-.898-.199-.164.022-.189.255-.189.576s-.345 2.034 2.132 2.034z" />
        <path class="fill-red"
            d="M171.26 130.01s.764-.054.917-.054c.354 0 .328.054.666.054.484 0 .409-.087.457-.274.049-.196.248-2.269.292-2.523.038-.227.054-.322.047-.48-.011-.251-.092-1.554-.137-1.785-.048-.23-.373-.455-.467-.51-.062-.042-.11-.04-.167.019-.067.075-.337.366-.29.597.045.23.233 1.512.233 1.771 0 .172.01.161-.016.633-.022.472-.282 1.584-.307 1.726-.022.14-.926.05-1.106.05s-.207-.594-.856-.594h-2.621c-.519 0-1.069.046-1.069.684s.217.804.831.804h2.767c.472 0 .575-.118.826-.118" />
        <path class="fill-none stroke-default"
            d="M171.26 130.01s.764-.054.917-.054c.354 0 .328.054.666.054.484 0 .409-.087.457-.274.049-.196.248-2.269.292-2.523.038-.227.054-.322.047-.48-.011-.251-.092-1.554-.137-1.785-.048-.23-.373-.455-.467-.51-.062-.042-.11-.04-.167.019-.067.075-.337.366-.29.597.045.23.233 1.512.233 1.771 0 .172.01.161-.016.633-.022.472-.282 1.584-.307 1.726-.022.14-.926.05-1.106.05s-.207-.594-.856-.594h-2.621c-.519 0-1.069.046-1.069.684s.217.804.831.804h2.767c.472 0 .575-.118.826-.118z" />
        <path class="fill-white"
            d="M165.44 123.15s-.113.151-.113.392c0 1.063 1.473 1.926 3.292 1.926s3.292-.863 3.292-1.926c0-.289-.056-.538-.056-.538" />
        <path class="fill-none stroke-default"
            d="M165.44 123.15s-.113.151-.113.392c0 1.063 1.473 1.926 3.292 1.926s3.292-.863 3.292-1.926c0-.289-.056-.538-.056-.538" />
        <path class="fill-white"
            d="M170.76 124.11s.102.517-.28.716c-.623.326-.965.549-.965.716 0 .246.197 1.715.197 1.939 0 .225-.322.477-.42.539-.061.047-.121.051-.197 0-.095-.062-.418-.314-.418-.539 0-.224-.013-1.481-.013-1.728 0-.167-.55-.468-1.202-.716-.449-.169-.483-.507-.545-.744" />
        <path class="fill-none stroke-default"
            d="M170.76 124.11s.102.517-.28.716c-.623.326-.965.549-.965.716 0 .246.197 1.715.197 1.939 0 .225-.322.477-.42.539-.061.047-.121.051-.197 0-.095-.062-.418-.314-.418-.539 0-.224-.013-1.481-.013-1.728 0-.167-.55-.468-1.202-.716-.449-.169-.483-.507-.545-.744" />
        <path class="fill-white"
            d="M166.24 126.26c.119-.171.128-.158.187-.228.056-.07.15-.122.278.073.126.194.177.367.139.657a15.51 15.51 0 0 1-.365 1.886c-.189.705-.213 1.772-.213 2.581 0 .81-.221 1.722-1.646 1.722-1.422 0-2.233-.832-2.233-1.585 0-.751.555-1.701 1.678-2.14 1.123-.439 1.591-.053 1.875-.764.278-.694.184-1.273.184-1.538 0-.267.056-.582.116-.664" />
        <path class="fill-none stroke-default"
            d="M166.24 126.26c.119-.171.128-.158.187-.228.056-.07.15-.122.278.073.126.194.177.367.139.657a15.51 15.51 0 0 1-.365 1.886c-.189.705-.213 1.772-.213 2.581 0 .81-.221 1.722-1.646 1.722-1.422 0-2.233-.832-2.233-1.585 0-.751.555-1.701 1.678-2.14 1.123-.439 1.591-.053 1.875-.764.278-.694.184-1.273.184-1.538 0-.267.056-.582.116-.664Z" />
        <path class="fill-gray"
            d="M193.32 131.04c0 .949-1.474 1.72-3.292 1.72-1.819 0-3.293-.771-3.293-1.72 0-.95 1.474-1.719 3.293-1.719 1.818 0 3.292.769 3.292 1.719" />
        <path class="fill-none stroke-default"
            d="M193.32 131.04c0 .949-1.474 1.72-3.292 1.72-1.819 0-3.293-.771-3.293-1.72 0-.95 1.474-1.719 3.293-1.719 1.818 0 3.292.769 3.292 1.719Z" />
        <path class="fill-gray"
            d="M192.07 131.37c0 .563-.915 1.02-2.045 1.02s-2.045-.457-2.045-1.02c0-.565.915-1.021 2.045-1.021s2.045.456 2.045 1.021" />
        <path class="fill-none stroke-default"
            d="M192.07 131.37c0 .563-.915 1.02-2.045 1.02s-2.045-.457-2.045-1.02c0-.565.915-1.021 2.045-1.021s2.045.456 2.045 1.021z" />
        <path class="fill-gray"
            d="M182.44 131.04c0 .949-1.474 1.72-3.293 1.72-1.816 0-3.291-.771-3.291-1.72 0-.95 1.475-1.719 3.291-1.719 1.819 0 3.293.769 3.293 1.719" />
        <path class="fill-none stroke-default"
            d="M182.44 131.04c0 .949-1.474 1.72-3.293 1.72-1.816 0-3.291-.771-3.291-1.72 0-.95 1.475-1.719 3.291-1.719 1.819 0 3.293.769 3.293 1.719Z" />
        <path class="fill-gray"
            d="M181.2 131.37c0 .563-.918 1.02-2.048 1.02s-2.046-.457-2.046-1.02c0-.565.916-1.021 2.046-1.021s2.048.456 2.048 1.021" />
        <path class="fill-none stroke-default"
            d="M181.2 131.37c0 .563-.918 1.02-2.048 1.02s-2.046-.457-2.046-1.02c0-.565.916-1.021 2.046-1.021s2.048.456 2.048 1.021z" />
        <path class="fill-gray"
            d="M171.92 122.65c0-1.065-1.473-1.929-3.292-1.929-1.818 0-3.292.864-3.292 1.929s1.474 1.93 3.292 1.93c1.819 0 3.292-.865 3.292-1.93" />
        <path class="fill-none stroke-default"
            d="M171.92 122.65c0-1.065-1.473-1.929-3.292-1.929-1.818 0-3.292.864-3.292 1.929s1.474 1.93 3.292 1.93c1.819 0 3.292-.865 3.292-1.93z" />
        <path class="fill-gray"
            d="M170.67 122.28c0-.634-.917-1.146-2.046-1.146-1.13 0-2.046.512-2.046 1.146 0 .632.916 1.146 2.046 1.146 1.129 0 2.046-.514 2.046-1.146" />
        <path class="fill-none stroke-default"
            d="M170.67 122.28c0-.634-.917-1.146-2.046-1.146-1.13 0-2.046.512-2.046 1.146 0 .632.916 1.146 2.046 1.146 1.129 0 2.046-.514 2.046-1.146Z" />
        <path class="fill-white"
            d="M160.14 129.39s-.458.36-.681.725c-.222.363-.334.425-.289 1.063.044.639.044 1.15-.111 1.297-.157.149-.4.343-.513.343-.11 0-.356-.194-.512-.343-.155-.147-.155-.658-.111-1.297.045-.638-.066-.7-.289-1.063-.223-.365-.68-.725-.68-.725" />
        <path class="fill-none stroke-default"
            d="M160.14 129.39s-.458.36-.681.725c-.222.363-.334.425-.289 1.063.044.639.044 1.15-.111 1.297-.157.149-.4.343-.513.343-.11 0-.356-.194-.512-.343-.155-.147-.155-.658-.111-1.297.045-.638-.066-.7-.289-1.063-.223-.365-.68-.725-.68-.725" />
        <path id="b-flat-key" class="fill-red" d="M161.85 126.61a3.225 3.225 0 1 1-6.449.001 3.225 3.225 0 0 1 6.449-.001" />
        <path class="fill-none stroke-default"
            d="M161.85 126.61a3.225 3.225 0 1 1-6.449.001 3.225 3.225 0 0 1 6.449-.001Z" />
        <path id="b-flat-key-inner" class="fill-red" d="M160.35 126.61a1.725 1.725 0 1 1-3.45 0 1.726 1.726 0 1 1 3.45 0" />
        <path class="fill-none stroke-default"
            d="M160.35 126.61a1.725 1.725 0 1 1-3.45 0 1.726 1.726 0 1 1 3.45 0Z" />
        <path class="fill-white"
            d="M150.6 129.39s-.456.36-.68.725c-.222.363-.335.425-.29 1.063.045.639.045 1.15-.111 1.297-.154.149-.399.343-.512.343-.11 0-.356-.194-.511-.343-.156-.147-.156-.658-.111-1.297.044-.638-.066-.7-.291-1.063-.221-.365-.68-.725-.68-.725" />
        <path class="fill-none stroke-default"
            d="M150.6 129.39s-.456.36-.68.725c-.222.363-.335.425-.29 1.063.045.639.045 1.15-.111 1.297-.154.149-.399.343-.512.343-.11 0-.356-.194-.511-.343-.156-.147-.156-.658-.111-1.297.044-.638-.066-.7-.291-1.063-.221-.365-.68-.725-.68-.725" />
        <path id="c-key" class="fill-red" d="M152.3 126.61a3.225 3.225 0 1 1-6.449.001 3.225 3.225 0 0 1 6.449-.001" />
        <path class="fill-none stroke-default"
            d="M152.3 126.61a3.225 3.225 0 1 1-6.449.001 3.225 3.225 0 0 1 6.449-.001Z" />
        <path id="c-key-inner" class="fill-red" d="M150.8 126.61a1.725 1.725 0 1 1-3.45.001 1.725 1.725 0 0 1 3.45-.001" />
        <path class="fill-none stroke-default"
            d="M150.8 126.61a1.725 1.725 0 1 1-3.45.001 1.725 1.725 0 0 1 3.45-.001Z" />
        <path class="fill-white"
            d="M141.62 129.39s-.456.36-.681.725c-.221.363-.333.425-.289 1.063.045.639.045 1.15-.111 1.297-.154.149-.4.343-.511.343-.111 0-.355-.194-.512-.343-.156-.147-.156-.658-.112-1.297.045-.638-.066-.7-.29-1.063-.221-.365-.678-.725-.678-.725" />
        <path class="fill-none stroke-default"
            d="M141.62 129.39s-.456.36-.681.725c-.221.363-.333.425-.289 1.063.045.639.045 1.15-.111 1.297-.154.149-.4.343-.511.343-.111 0-.355-.194-.512-.343-.156-.147-.156-.658-.112-1.297.045-.638-.066-.7-.29-1.063-.221-.365-.678-.725-.678-.725" />
        <path id="d-key" class="fill-red" d="M143.33 126.61a3.223 3.223 0 1 1-6.448 0 3.223 3.223 0 1 1 6.448 0" />
        <path class="fill-none stroke-default"
            d="M143.33 126.61a3.223 3.223 0 1 1-6.448 0 3.223 3.223 0 1 1 6.448 0Z" />
        <path id="d-key-inner" class="fill-red" d="M141.83 126.61a1.726 1.726 0 1 1-3.453 0 1.726 1.726 0 0 1 3.453 0" />
        <path class="fill-none stroke-default"
            d="M141.83 126.61a1.726 1.726 0 1 1-3.453 0 1.726 1.726 0 0 1 3.453 0Z" />
        <path class="fill-white"
            d="M133.04 129.39s-.458.36-.681.725c-.223.363-.333.425-.29 1.063.045.639.045 1.15-.109 1.297-.156.149-.402.343-.514.343-.111 0-.355-.194-.51-.343-.157-.147-.157-.658-.112-1.297.045-.638-.067-.7-.29-1.063-.223-.365-.679-.725-.679-.725" />
        <path class="fill-none stroke-default"
            d="M133.04 129.39s-.458.36-.681.725c-.223.363-.333.425-.29 1.063.045.639.045 1.15-.109 1.297-.156.149-.402.343-.514.343-.111 0-.355-.194-.51-.343-.157-.147-.157-.658-.112-1.297.045-.638-.067-.7-.29-1.063-.223-.365-.679-.725-.679-.725" />
        <path id="e-key-top" class="fill-gray" d="M134.75 126.61a3.224 3.224 0 1 1-6.448.002 3.224 3.224 0 0 1 6.448-.002" />
        <path class="fill-none stroke-default"
            d="M134.75 126.61a3.224 3.224 0 1 1-6.448.002 3.224 3.224 0 0 1 6.448-.002Z" />
        <path class="fill-gray" d="M133.25 126.61a1.726 1.726 0 1 1-3.451 0 1.726 1.726 0 0 1 3.451 0" />
        <path class="fill-none stroke-default"
            d="M133.25 126.61a1.726 1.726 0 1 1-3.451 0 1.726 1.726 0 0 1 3.451 0Z" />
        <path class="fill-white"
            d="M110.05 129.39s-.457.36-.68.725c-.222.363-.334.425-.29 1.063.045.639.045 1.15-.109 1.297-.156.149-.401.343-.514.343-.111 0-.356-.194-.511-.343-.156-.147-.156-.658-.112-1.297.045-.638-.066-.7-.289-1.063-.224-.365-.68-.725-.68-.725" />
        <path class="fill-none stroke-default"
            d="M110.05 129.39s-.457.36-.68.725c-.222.363-.334.425-.29 1.063.045.639.045 1.15-.109 1.297-.156.149-.401.343-.514.343-.111 0-.356-.194-.511-.343-.156-.147-.156-.658-.112-1.297.045-.638-.066-.7-.289-1.063-.224-.365-.68-.725-.68-.725" />
        <path id="d-sharp-key" class="fill-red" d="M111.75 126.61a3.225 3.225 0 1 1-6.45 0 3.225 3.225 0 0 1 6.45 0" />
        <path class="fill-none stroke-default"
            d="M111.75 126.61a3.225 3.225 0 1 1-6.45 0 3.225 3.225 0 0 1 6.45 0z" />
        <path class="fill-red" d="M110.26 126.61a1.725 1.725 0 1 1-3.451 0 1.726 1.726 0 1 1 3.451 0" />
        <path class="fill-none stroke-default"
            d="M110.26 126.61a1.725 1.725 0 1 1-3.451 0 1.726 1.726 0 1 1 3.451 0Z" />
        <path class="fill-white"
            d="M153.97 131.36s.023-.533.057-.932c.02-.222.13-.463.343-.894.216-.431.556-1.576.556-2.224 0-.646-.277-.982-.899-.982-.621 0-1.014.274-1.014 1.229 0 .709.31 1.64.31 2.272 0 .63-.31 1.121-.31 1.531" />
        <path class="fill-none stroke-default"
            d="M153.97 131.36s.023-.533.057-.932c.02-.222.13-.463.343-.894.216-.431.556-1.576.556-2.224 0-.646-.277-.982-.899-.982-.621 0-1.014.274-1.014 1.229 0 .709.31 1.64.31 2.272 0 .63-.31 1.121-.31 1.531" />
        <path class="fill-white"
            d="M144.63 131.36s.022-.533.056-.932c.02-.222.129-.463.343-.894.217-.431.557-1.576.557-2.224 0-.646-.279-.982-.9-.982s-1.013.274-1.013 1.229c0 .709.309 1.64.309 2.272 0 .63-.309 1.121-.309 1.531" />
        <path class="fill-none stroke-default"
            d="M144.63 131.36s.022-.533.056-.932c.02-.222.129-.463.343-.894.217-.431.557-1.576.557-2.224 0-.646-.279-.982-.9-.982s-1.013.274-1.013 1.229c0 .709.309 1.64.309 2.272 0 .63-.309 1.121-.309 1.531" />
        <path class="fill-white"
            d="M142.82 130.99c-.205 0-.387.123-.507.316v2.526c.12.194.302.319.507.319.205 0 .388-.125.509-.319v-2.526c-.121-.193-.304-.316-.509-.316" />
        <path class="fill-none stroke-default"
            d="M142.82 130.99c-.205 0-.387.123-.507.316v2.526c.12.194.302.319.507.319.205 0 .388-.125.509-.319v-2.526c-.121-.193-.304-.316-.509-.316Z" />
        <path class="fill-white"
            d="M130.26 130.99c-.203 0-.386.123-.506.316v2.526c.12.194.303.319.506.319.205 0 .389-.125.508-.319v-2.526c-.119-.193-.303-.316-.508-.316" />
        <path class="fill-none stroke-default"
            d="M130.26 130.99c-.203 0-.386.123-.506.316v2.526c.12.194.303.319.506.319.205 0 .389-.125.508-.319v-2.526c-.119-.193-.303-.316-.508-.316Z" />
        <path class="fill-white" d="M130.77 133.83h11.542" />
        <path class="fill-none stroke-default"
            d="M130.77 133.83h11.542" />
        <path class="fill-white"
            d="M130.26 130.56s-.409-.624-1.19-1.246c-.784-.621-1.048-1.382-1.048-1.933v-2.503c0-.357-.14-.434-.294-.589-.156-.156-.357-.17-.519 0-.275.294-.294.293-.294.795v1.813c0 .327.122.881.468 1.519.345.638.795.898 1.192 1.347.396.449.666.794.666.794" />
        <path class="fill-none stroke-default"
            d="M130.26 130.56s-.409-.624-1.19-1.246c-.784-.621-1.048-1.382-1.048-1.933v-2.503c0-.357-.14-.434-.294-.589-.156-.156-.357-.17-.519 0-.275.294-.294.293-.294.795v1.813c0 .327.122.881.468 1.519.345.638.795.898 1.192 1.347.396.449.666.794.666.794" />
        <path class="fill-white"
            d="M127.01 131.36c0 .641-.005.928.109 1.109.147.235.246.343.358.343.11 0 .291-.258.446-.406.157-.15.111-.472.111-1.111 0-.132.576-.137.947-.137h5.176c.647 0 1.632-1.084 1.632-1.632 0-.546-.606-.943-1.08-.943-.473 0-.72.231-.861.911-.121.579-.443.924-.601.984-.157.06-.528.095-1.096.095h-3.179c-.697 0-1.962.187-1.962.787" />
        <path class="fill-none stroke-default"
            d="M127.01 131.36c0 .641-.005.928.109 1.109.147.235.246.343.358.343.11 0 .291-.258.446-.406.157-.15.111-.472.111-1.111 0-.132.576-.137.947-.137h5.176c.647 0 1.632-1.084 1.632-1.632 0-.546-.606-.943-1.08-.943-.473 0-.72.231-.861.911-.121.579-.443.924-.601.984-.157.06-.528.095-1.096.095h-3.179c-.697 0-1.962.187-1.962.787Z" />
        <path class="fill-white"
            d="M101.34 135.32h-5.804c-1.039 0-1.716.063-2.002.175-.288.108-.876.739-1.098 1.796-.257 1.242-.707 1.663-1.572 1.663-.867 0-1.972-.723-1.972-1.723 0-1.002 1.799-2.978 2.977-2.978h9.455c.478 0 .82 1.067.016 1.067" />
        <path class="fill-none stroke-default"
            d="M101.34 135.32h-5.804c-1.039 0-1.716.063-2.002.175-.288.108-.876.739-1.098 1.796-.257 1.242-.707 1.663-1.572 1.663-.867 0-1.972-.723-1.972-1.723 0-1.002 1.799-2.978 2.977-2.978h9.455c.478 0 .82 1.067.016 1.067Z" />
        <path class="fill-white"
            d="M125.74 127.27s-.864 1.116-1.087 1.479c-.223.365-.371.427-.331 1.067.044.638.044 1.765-.103 1.914-.145.148-.375.342-.479.342-.104 0-.333-.194-.479-.342-.146-.149-.146-1.276-.102-1.914.04-.64-.108-.702-.332-1.067-.221-.363-1.085-1.479-1.085-1.479" />
        <path class="fill-none stroke-default"
            d="M125.74 127.27s-.864 1.116-1.087 1.479c-.223.365-.371.427-.331 1.067.044.638.044 1.765-.103 1.914-.145.148-.375.342-.479.342-.104 0-.333-.194-.479-.342-.146-.149-.146-1.276-.102-1.914.04-.64-.108-.702-.332-1.067-.221-.363-1.085-1.479-1.085-1.479" />
        <path id="ice-lever" class="fill-gray" d="M127.04 124.87a3.223 3.223 0 0 1-6.448 0 3.224 3.224 0 1 1 6.448 0" />
        <path class="fill-none stroke-default"
            d="M127.04 124.87a3.223 3.223 0 0 1-6.448 0 3.224 3.224 0 1 1 6.448 0Z" />
        <path class="fill-gray" d="M125.54 124.87a1.726 1.726 0 1 1-3.452-.002 1.726 1.726 0 0 1 3.452.002" />
        <path class="fill-none stroke-default"
            d="M125.54 124.87a1.726 1.726 0 1 1-3.452-.002 1.726 1.726 0 0 1 3.452.002Z" />
        <path class="fill-white"
            d="M117.87 127.27s-.863 1.116-1.087 1.479c-.223.365-.372.427-.329 1.067.041.638.041 1.765-.104 1.914-.146.148-.375.342-.48.342-.104 0-.333-.194-.478-.342-.146-.149-.146-1.276-.104-1.914.042-.64-.106-.702-.33-1.067-.223-.363-1.086-1.479-1.086-1.479" />
        <path class="fill-none stroke-default"
            d="M117.87 127.27s-.863 1.116-1.087 1.479c-.223.365-.372.427-.329 1.067.041.638.041 1.765-.104 1.914-.146.148-.375.342-.48.342-.104 0-.333-.194-.478-.342-.146-.149-.146-1.276-.104-1.914.042-.64-.106-.702-.33-1.067-.223-.363-1.086-1.479-1.086-1.479" />
        <path id="g-sharp-lever" class="fill-red" d="M119.17 124.87a3.223 3.223 0 1 1-6.45 0 3.223 3.223 0 0 1 6.45 0" />
        <path class="fill-none stroke-default"
            d="M119.17 124.87a3.223 3.223 0 1 1-6.45 0 3.223 3.223 0 0 1 6.45 0Z" />
        <path class="fill-red"
            d="M117.67 124.87a1.725 1.725 0 0 1-3.451 0c0-.953.773-1.728 1.726-1.728s1.725.775 1.725 1.728" />
        <path class="fill-none stroke-default"
            d="M117.67 124.87a1.725 1.725 0 0 1-3.451 0c0-.953.773-1.728 1.726-1.728s1.725.775 1.725 1.728z" />
        <path class="fill-white"
            d="M119.45 128.73v-6.172c0-.872-.921-.95-1.858-1.289-.938-.34-3.034-.839-3.034-2.775 0-.898 1.118-1.197 1.776-1.197s3.832 1.217 3.832 4.15v7.243c0 .5-.003.692-.36.692-.356 0-.356-.472-.356-.652" />
        <path class="fill-none stroke-default"
            d="M119.45 128.73v-6.172c0-.872-.921-.95-1.858-1.289-.938-.34-3.034-.839-3.034-2.775 0-.898 1.118-1.197 1.776-1.197s3.832 1.217 3.832 4.15v7.243c0 .5-.003.692-.36.692-.356 0-.356-.472-.356-.652z" />
        <path class="fill-white"
            d="M103.19 129.39s-.457.36-.678.725c-.224.363-.335.425-.291 1.063.045.639.045 1.15-.111 1.297-.155.149-.401.343-.512.343-.111 0-.356-.194-.512-.343-.156-.147-.156-.658-.111-1.297.044-.638-.067-.7-.289-1.063-.224-.365-.68-.725-.68-.725" />
        <path class="fill-none stroke-default"
            d="M103.19 129.39s-.457.36-.678.725c-.224.363-.335.425-.291 1.063.045.639.045 1.15-.111 1.297-.155.149-.401.343-.512.343-.111 0-.356-.194-.512-.343-.156-.147-.156-.658-.111-1.297.044-.638-.067-.7-.289-1.063-.224-.365-.68-.725-.68-.725" />
        <path id="d-trill-key" class="fill-gray" d="M104.9 126.61a3.224 3.224 0 1 1-6.448.002 3.224 3.224 0 0 1 6.448-.002" />
        <path class="fill-none stroke-default"
            d="M104.9 126.61a3.224 3.224 0 1 1-6.448.002 3.224 3.224 0 0 1 6.448-.002Z" />
        <path class="fill-gray" d="M103.4 126.61a1.726 1.726 0 1 1-3.451 0 1.726 1.726 0 0 1 3.451 0" />
        <path class="fill-none stroke-default"
            d="M103.4 126.61a1.726 1.726 0 1 1-3.451 0 1.726 1.726 0 0 1 3.451 0z" />
        <path class="fill-white"
            d="M96.418 128.82s-.314.36-.467.725c-.154.362-.23.996-.2 1.633.032.639.032 1.15-.077 1.297-.107.15-.275.287-.352.287-.076 0-.245-.137-.352-.287-.108-.147-.108-.658-.076-1.297.031-.637-.046-1.271-.2-1.633-.153-.365-.467-.725-.467-.725" />
        <path class="fill-none stroke-default"
            d="M96.418 128.82s-.314.36-.467.725c-.154.362-.23.996-.2 1.633.032.639.032 1.15-.077 1.297-.107.15-.275.287-.352.287-.076 0-.245-.137-.352-.287-.108-.147-.108-.658-.076-1.297.031-.637-.046-1.271-.2-1.633-.153-.365-.467-.725-.467-.725" />
        <path id="d-sharp-trill-key" class="fill-red" d="M97.934 126.61a2.538 2.538 0 1 1-5.076 0 2.538 2.538 0 0 1 5.076 0" />
        <path class="fill-none stroke-default"
            d="M97.934 126.61a2.538 2.538 0 1 1-5.076 0 2.538 2.538 0 0 1 5.076 0z" />
        <path class="fill-red" d="M96.754 126.61a1.358 1.358 0 1 1-2.716 0 1.358 1.358 0 0 1 2.716 0" />
        <path class="fill-none stroke-default"
            d="M96.754 126.61a1.358 1.358 0 1 1-2.716 0 1.358 1.358 0 0 1 2.716 0Z" />
        <path class="fill-white"
            d="M86.377 128.82s-.314.36-.467.725c-.154.362-.231.996-.199 1.633.029.639.029 1.15-.078 1.297-.107.15-.276.287-.351.287-.077 0-.246-.137-.353-.287-.108-.147-.108-.658-.076-1.297.03-.637-.046-1.271-.201-1.633-.152-.365-.466-.725-.466-.725" />
        <path class="fill-none stroke-default"
            d="M86.377 128.82s-.314.36-.467.725c-.154.362-.231.996-.199 1.633.029.639.029 1.15-.078 1.297-.107.15-.276.287-.351.287-.077 0-.246-.137-.353-.287-.108-.147-.108-.658-.076-1.297.03-.637-.046-1.271-.201-1.633-.152-.365-.466-.725-.466-.725" />
        <path id="roller-key" class="fill-gray" d="M87.571 126.93a2.213 2.213 0 1 1-4.427-.001 2.213 2.213 0 0 1 4.427.001" />
        <path class="fill-none stroke-default"
            d="M87.571 126.93a2.213 2.213 0 1 1-4.427-.001 2.213 2.213 0 0 1 4.427.001z" />
        <path class="fill-gray" d="M86.542 126.93a1.186 1.186 0 1 1-2.371-.001 1.186 1.186 0 0 1 2.371.001" />
        <path class="fill-none stroke-default"
            d="M86.542 126.93a1.186 1.186 0 1 1-2.371-.001 1.186 1.186 0 0 1 2.371.001z" />
    </g>
</svg>